G04 (created by PCBNEW (2013-01-21 BZR 3918)-testing) date Wed 23 Jan 2013 07:37:05 PM CET*
%MOIN*%
G04 Gerber Fmt 3.4, Leading zero omitted, Abs format*
%FSLAX34Y34*%
G01*
G70*
G90*
G04 APERTURE LIST*
%ADD10C,0.00393701*%
%ADD11C,0.005*%
%ADD12C,0.01*%
%ADD13C,0.0026*%
%ADD14C,0.008*%
%ADD15R,0.06X0.06*%
%ADD16C,0.06*%
%ADD17R,0.0472X0.0137*%
G04 APERTURE END LIST*
G54D10*
G54D11*
X58330Y-39102D02*
X58330Y-39216D01*
X58530Y-39159D02*
X58330Y-39159D01*
X58521Y-39273D02*
X58530Y-39302D01*
X58530Y-39350D01*
X58521Y-39369D01*
X58511Y-39378D01*
X58492Y-39388D01*
X58473Y-39388D01*
X58454Y-39378D01*
X58445Y-39369D01*
X58435Y-39350D01*
X58426Y-39311D01*
X58416Y-39292D01*
X58407Y-39283D01*
X58388Y-39273D01*
X58369Y-39273D01*
X58350Y-39283D01*
X58340Y-39292D01*
X58330Y-39311D01*
X58330Y-39359D01*
X58340Y-39388D01*
X58521Y-39464D02*
X58530Y-39492D01*
X58530Y-39540D01*
X58521Y-39559D01*
X58511Y-39569D01*
X58492Y-39578D01*
X58473Y-39578D01*
X58454Y-39569D01*
X58445Y-39559D01*
X58435Y-39540D01*
X58426Y-39502D01*
X58416Y-39483D01*
X58407Y-39473D01*
X58388Y-39464D01*
X58369Y-39464D01*
X58350Y-39473D01*
X58340Y-39483D01*
X58330Y-39502D01*
X58330Y-39550D01*
X58340Y-39578D01*
X58330Y-39702D02*
X58330Y-39740D01*
X58340Y-39759D01*
X58359Y-39778D01*
X58397Y-39788D01*
X58464Y-39788D01*
X58502Y-39778D01*
X58521Y-39759D01*
X58530Y-39740D01*
X58530Y-39702D01*
X58521Y-39683D01*
X58502Y-39664D01*
X58464Y-39654D01*
X58397Y-39654D01*
X58359Y-39664D01*
X58340Y-39683D01*
X58330Y-39702D01*
X58530Y-39873D02*
X58330Y-39873D01*
X58330Y-39950D01*
X58340Y-39969D01*
X58350Y-39978D01*
X58369Y-39988D01*
X58397Y-39988D01*
X58416Y-39978D01*
X58426Y-39969D01*
X58435Y-39950D01*
X58435Y-39873D01*
X58416Y-40102D02*
X58407Y-40083D01*
X58397Y-40073D01*
X58378Y-40064D01*
X58369Y-40064D01*
X58350Y-40073D01*
X58340Y-40083D01*
X58330Y-40102D01*
X58330Y-40140D01*
X58340Y-40159D01*
X58350Y-40169D01*
X58369Y-40178D01*
X58378Y-40178D01*
X58397Y-40169D01*
X58407Y-40159D01*
X58416Y-40140D01*
X58416Y-40102D01*
X58426Y-40083D01*
X58435Y-40073D01*
X58454Y-40064D01*
X58492Y-40064D01*
X58511Y-40073D01*
X58521Y-40083D01*
X58530Y-40102D01*
X58530Y-40140D01*
X58521Y-40159D01*
X58511Y-40169D01*
X58492Y-40178D01*
X58454Y-40178D01*
X58435Y-40169D01*
X58426Y-40159D01*
X58416Y-40140D01*
G54D12*
X53930Y-40640D02*
X57920Y-40640D01*
X53930Y-41690D02*
X53930Y-40640D01*
X57920Y-41690D02*
X53930Y-41690D01*
X57920Y-40640D02*
X57920Y-41690D01*
X57920Y-37640D02*
X53930Y-37640D01*
X57920Y-38690D02*
X57920Y-37640D01*
X53930Y-38690D02*
X57920Y-38690D01*
X53930Y-37640D02*
X53930Y-38690D01*
X54410Y-38980D02*
X54320Y-39250D01*
X54540Y-39250D02*
X54410Y-38980D01*
X54430Y-38840D02*
X54420Y-39250D01*
X54630Y-39250D02*
X54430Y-38840D01*
X54230Y-39250D02*
X54630Y-39250D01*
X54430Y-38840D02*
X54230Y-39250D01*
X54830Y-40040D02*
X54580Y-40140D01*
X54580Y-40140D02*
X54580Y-39940D01*
X54580Y-39940D02*
X54830Y-40040D01*
X54830Y-40040D02*
X54580Y-40040D01*
G54D13*
X55171Y-39974D02*
X55564Y-39974D01*
X55564Y-39974D02*
X55564Y-40073D01*
X55171Y-40073D02*
X55564Y-40073D01*
X55171Y-39974D02*
X55171Y-40073D01*
X55171Y-39718D02*
X55564Y-39718D01*
X55564Y-39718D02*
X55564Y-39817D01*
X55171Y-39817D02*
X55564Y-39817D01*
X55171Y-39718D02*
X55171Y-39817D01*
X55171Y-39463D02*
X55564Y-39463D01*
X55564Y-39463D02*
X55564Y-39562D01*
X55171Y-39562D02*
X55564Y-39562D01*
X55171Y-39463D02*
X55171Y-39562D01*
X55171Y-39207D02*
X55564Y-39207D01*
X55564Y-39207D02*
X55564Y-39306D01*
X55171Y-39306D02*
X55564Y-39306D01*
X55171Y-39207D02*
X55171Y-39306D01*
X57296Y-39207D02*
X57689Y-39207D01*
X57689Y-39207D02*
X57689Y-39306D01*
X57296Y-39306D02*
X57689Y-39306D01*
X57296Y-39207D02*
X57296Y-39306D01*
X57296Y-39463D02*
X57689Y-39463D01*
X57689Y-39463D02*
X57689Y-39562D01*
X57296Y-39562D02*
X57689Y-39562D01*
X57296Y-39463D02*
X57296Y-39562D01*
X57296Y-39718D02*
X57689Y-39718D01*
X57689Y-39718D02*
X57689Y-39817D01*
X57296Y-39817D02*
X57689Y-39817D01*
X57296Y-39718D02*
X57296Y-39817D01*
X57296Y-39974D02*
X57689Y-39974D01*
X57689Y-39974D02*
X57689Y-40073D01*
X57296Y-40073D02*
X57689Y-40073D01*
X57296Y-39974D02*
X57296Y-40073D01*
G54D14*
X55584Y-39089D02*
X57276Y-39089D01*
X57276Y-39089D02*
X57276Y-40191D01*
X57276Y-40191D02*
X55584Y-40191D01*
X55584Y-40191D02*
X55584Y-39089D01*
G54D12*
X55880Y-39895D02*
G75*
G03X55880Y-39895I-89J0D01*
G74*
G01*
%LPC*%
G54D15*
X54430Y-41140D03*
G54D16*
X55430Y-41140D03*
X56430Y-41140D03*
X57430Y-41140D03*
X58430Y-41140D03*
X58430Y-38140D03*
X57430Y-38140D03*
X56430Y-38140D03*
X55430Y-38140D03*
G54D15*
X54430Y-38140D03*
X56430Y-39640D03*
G54D17*
X55279Y-40023D03*
X55279Y-39767D03*
X55279Y-39513D03*
X55279Y-39257D03*
X57581Y-39257D03*
X57581Y-39513D03*
X57581Y-39767D03*
X57581Y-40023D03*
G54D15*
X56430Y-39640D03*
M02*
