G04 (created by PCBNEW (2013-01-21 BZR 3918)-testing) date Wed 23 Jan 2013 07:37:05 PM CET*
%MOIN*%
G04 Gerber Fmt 3.4, Leading zero omitted, Abs format*
%FSLAX34Y34*%
G01*
G70*
G90*
G04 APERTURE LIST*
%ADD10C,0.00393701*%
%ADD11R,0.06X0.06*%
%ADD12C,0.06*%
%ADD13R,0.0472X0.0137*%
%ADD14C,0.011*%
%ADD15C,0.008*%
G04 APERTURE END LIST*
G54D10*
G54D11*
X54430Y-41140D03*
G54D12*
X55430Y-41140D03*
X56430Y-41140D03*
X57430Y-41140D03*
X58430Y-41140D03*
X58430Y-38140D03*
X57430Y-38140D03*
X56430Y-38140D03*
X55430Y-38140D03*
G54D11*
X54430Y-38140D03*
X56430Y-39640D03*
G54D13*
X55279Y-40023D03*
X55279Y-39767D03*
X55279Y-39513D03*
X55279Y-39257D03*
X57581Y-39257D03*
X57581Y-39513D03*
X57581Y-39767D03*
X57581Y-40023D03*
G54D11*
X56430Y-39640D03*
G54D14*
X57581Y-40023D02*
X57027Y-40023D01*
X54430Y-40420D02*
X54430Y-41140D01*
X54525Y-40325D02*
X54430Y-40420D01*
X55650Y-40325D02*
X54525Y-40325D01*
X55800Y-40175D02*
X55650Y-40325D01*
X56875Y-40175D02*
X55800Y-40175D01*
X57027Y-40023D02*
X56875Y-40175D01*
X55279Y-40023D02*
X54804Y-40023D01*
X54574Y-38284D02*
X54430Y-38140D01*
X54574Y-38809D02*
X54574Y-38284D01*
X54441Y-38942D02*
X54574Y-38809D01*
X54441Y-39660D02*
X54441Y-38942D01*
X54804Y-40023D02*
X54441Y-39660D01*
X55430Y-41140D02*
X55430Y-40539D01*
X57917Y-39767D02*
X57581Y-39767D01*
X58025Y-39875D02*
X57917Y-39767D01*
X58025Y-40250D02*
X58025Y-39875D01*
X57975Y-40300D02*
X58025Y-40250D01*
X57023Y-40300D02*
X57975Y-40300D01*
X56956Y-40367D02*
X57023Y-40300D01*
X55881Y-40367D02*
X56956Y-40367D01*
X55731Y-40517D02*
X55881Y-40367D01*
X55452Y-40517D02*
X55731Y-40517D01*
X55430Y-40539D02*
X55452Y-40517D01*
X56430Y-41140D02*
X56430Y-40575D01*
X57963Y-39513D02*
X57581Y-39513D01*
X58225Y-39775D02*
X57963Y-39513D01*
X58225Y-40350D02*
X58225Y-39775D01*
X58075Y-40500D02*
X58225Y-40350D01*
X57103Y-40500D02*
X58075Y-40500D01*
X57044Y-40559D02*
X57103Y-40500D01*
X56446Y-40559D02*
X57044Y-40559D01*
X56430Y-40575D02*
X56446Y-40559D01*
X57430Y-41140D02*
X57430Y-40764D01*
X57982Y-39257D02*
X57581Y-39257D01*
X58149Y-39424D02*
X57982Y-39257D01*
X58149Y-39427D02*
X58149Y-39424D01*
X58417Y-39695D02*
X58149Y-39427D01*
X58417Y-40430D02*
X58417Y-39695D01*
X58155Y-40692D02*
X58417Y-40430D01*
X57502Y-40692D02*
X58155Y-40692D01*
X57430Y-40764D02*
X57502Y-40692D01*
X55279Y-39257D02*
X55279Y-39204D01*
X56920Y-38650D02*
X57430Y-38140D01*
X55975Y-38650D02*
X56920Y-38650D01*
X55783Y-38842D02*
X55975Y-38650D01*
X55230Y-38842D02*
X55783Y-38842D01*
X55150Y-38922D02*
X55230Y-38842D01*
X55150Y-39075D02*
X55150Y-38922D01*
X55279Y-39204D02*
X55150Y-39075D01*
X55279Y-39513D02*
X54838Y-39513D01*
X56112Y-38458D02*
X56430Y-38140D01*
X55895Y-38458D02*
X56112Y-38458D01*
X55703Y-38650D02*
X55895Y-38458D01*
X55150Y-38650D02*
X55703Y-38650D01*
X54958Y-38842D02*
X55150Y-38650D01*
X54958Y-38969D02*
X54958Y-38842D01*
X54825Y-39102D02*
X54958Y-38969D01*
X54825Y-39500D02*
X54825Y-39102D01*
X54838Y-39513D02*
X54825Y-39500D01*
X55279Y-39767D02*
X54820Y-39767D01*
X55430Y-38391D02*
X55430Y-38140D01*
X55363Y-38458D02*
X55430Y-38391D01*
X55070Y-38458D02*
X55363Y-38458D01*
X54766Y-38762D02*
X55070Y-38458D01*
X54766Y-38889D02*
X54766Y-38762D01*
X54633Y-39022D02*
X54766Y-38889D01*
X54633Y-39580D02*
X54633Y-39022D01*
X54820Y-39767D02*
X54633Y-39580D01*
G54D10*
G36*
X58890Y-41640D02*
X58850Y-41640D01*
X58850Y-41098D01*
X58850Y-38098D01*
X58834Y-38018D01*
X58802Y-37941D01*
X58757Y-37873D01*
X58699Y-37814D01*
X58630Y-37768D01*
X58554Y-37736D01*
X58474Y-37720D01*
X58391Y-37719D01*
X58310Y-37735D01*
X58234Y-37765D01*
X58165Y-37811D01*
X58106Y-37868D01*
X58060Y-37936D01*
X58027Y-38012D01*
X58010Y-38092D01*
X58009Y-38175D01*
X58024Y-38256D01*
X58054Y-38332D01*
X58099Y-38402D01*
X58156Y-38461D01*
X58224Y-38508D01*
X58299Y-38541D01*
X58380Y-38559D01*
X58462Y-38560D01*
X58543Y-38546D01*
X58620Y-38516D01*
X58689Y-38472D01*
X58749Y-38415D01*
X58796Y-38348D01*
X58830Y-38273D01*
X58848Y-38192D01*
X58850Y-38098D01*
X58850Y-41098D01*
X58834Y-41018D01*
X58802Y-40941D01*
X58757Y-40873D01*
X58699Y-40814D01*
X58630Y-40768D01*
X58554Y-40736D01*
X58474Y-40720D01*
X58391Y-40719D01*
X58370Y-40723D01*
X58540Y-40553D01*
X58551Y-40541D01*
X58561Y-40528D01*
X58561Y-40528D01*
X58562Y-40527D01*
X58570Y-40513D01*
X58577Y-40498D01*
X58578Y-40498D01*
X58578Y-40497D01*
X58583Y-40481D01*
X58588Y-40466D01*
X58588Y-40465D01*
X58588Y-40464D01*
X58590Y-40448D01*
X58591Y-40432D01*
X58591Y-40430D01*
X58591Y-40430D01*
X58591Y-40430D01*
X58592Y-40430D01*
X58592Y-39695D01*
X58590Y-39678D01*
X58589Y-39662D01*
X58588Y-39661D01*
X58588Y-39661D01*
X58583Y-39645D01*
X58579Y-39630D01*
X58579Y-39629D01*
X58578Y-39628D01*
X58571Y-39614D01*
X58563Y-39599D01*
X58563Y-39598D01*
X58562Y-39598D01*
X58552Y-39585D01*
X58542Y-39572D01*
X58541Y-39571D01*
X58541Y-39571D01*
X58541Y-39571D01*
X58540Y-39571D01*
X58286Y-39316D01*
X58284Y-39314D01*
X58274Y-39301D01*
X58273Y-39300D01*
X58273Y-39300D01*
X58273Y-39300D01*
X58272Y-39300D01*
X58105Y-39133D01*
X58093Y-39122D01*
X58080Y-39112D01*
X58080Y-39112D01*
X58079Y-39111D01*
X58065Y-39103D01*
X58050Y-39096D01*
X58050Y-39095D01*
X58049Y-39095D01*
X58033Y-39090D01*
X58018Y-39085D01*
X58017Y-39085D01*
X58016Y-39085D01*
X58000Y-39083D01*
X57984Y-39082D01*
X57982Y-39082D01*
X57982Y-39082D01*
X57982Y-39082D01*
X57982Y-39082D01*
X57873Y-39082D01*
X57852Y-39073D01*
X57829Y-39068D01*
X57806Y-39068D01*
X57333Y-39068D01*
X57310Y-39073D01*
X57288Y-39082D01*
X57268Y-39095D01*
X57252Y-39111D01*
X57238Y-39131D01*
X57229Y-39152D01*
X57225Y-39175D01*
X57224Y-39199D01*
X57224Y-39337D01*
X57229Y-39360D01*
X57238Y-39382D01*
X57240Y-39384D01*
X57238Y-39387D01*
X57229Y-39408D01*
X57225Y-39431D01*
X57224Y-39455D01*
X57224Y-39593D01*
X57229Y-39616D01*
X57238Y-39638D01*
X57239Y-39639D01*
X57238Y-39641D01*
X57229Y-39662D01*
X57225Y-39685D01*
X57224Y-39709D01*
X57224Y-39847D01*
X57225Y-39848D01*
X57027Y-39848D01*
X57010Y-39849D01*
X56994Y-39850D01*
X56993Y-39851D01*
X56993Y-39851D01*
X56977Y-39856D01*
X56962Y-39860D01*
X56961Y-39860D01*
X56960Y-39861D01*
X56946Y-39868D01*
X56931Y-39876D01*
X56930Y-39876D01*
X56930Y-39877D01*
X56917Y-39887D01*
X56904Y-39897D01*
X56903Y-39898D01*
X56903Y-39898D01*
X56903Y-39898D01*
X56903Y-39899D01*
X56802Y-40000D01*
X55800Y-40000D01*
X55783Y-40001D01*
X55767Y-40002D01*
X55766Y-40003D01*
X55766Y-40003D01*
X55750Y-40008D01*
X55735Y-40012D01*
X55734Y-40012D01*
X55733Y-40013D01*
X55719Y-40020D01*
X55704Y-40028D01*
X55703Y-40028D01*
X55703Y-40029D01*
X55690Y-40039D01*
X55677Y-40049D01*
X55676Y-40050D01*
X55676Y-40050D01*
X55676Y-40050D01*
X55676Y-40051D01*
X55635Y-40092D01*
X55635Y-40080D01*
X55635Y-39942D01*
X55630Y-39919D01*
X55621Y-39897D01*
X55619Y-39895D01*
X55621Y-39892D01*
X55630Y-39871D01*
X55634Y-39848D01*
X55635Y-39824D01*
X55635Y-39686D01*
X55630Y-39663D01*
X55621Y-39641D01*
X55620Y-39640D01*
X55621Y-39638D01*
X55630Y-39617D01*
X55634Y-39594D01*
X55635Y-39570D01*
X55635Y-39432D01*
X55630Y-39409D01*
X55621Y-39387D01*
X55619Y-39385D01*
X55621Y-39382D01*
X55630Y-39361D01*
X55634Y-39338D01*
X55635Y-39314D01*
X55635Y-39176D01*
X55630Y-39153D01*
X55621Y-39131D01*
X55608Y-39112D01*
X55591Y-39095D01*
X55572Y-39082D01*
X55550Y-39073D01*
X55527Y-39068D01*
X55504Y-39068D01*
X55390Y-39068D01*
X55339Y-39017D01*
X55783Y-39017D01*
X55799Y-39015D01*
X55815Y-39014D01*
X55816Y-39013D01*
X55816Y-39013D01*
X55832Y-39008D01*
X55847Y-39004D01*
X55848Y-39004D01*
X55849Y-39003D01*
X55863Y-38996D01*
X55878Y-38988D01*
X55879Y-38988D01*
X55879Y-38987D01*
X55892Y-38977D01*
X55905Y-38967D01*
X55906Y-38966D01*
X55906Y-38966D01*
X55906Y-38966D01*
X55906Y-38965D01*
X56047Y-38825D01*
X56920Y-38825D01*
X56936Y-38823D01*
X56952Y-38822D01*
X56953Y-38821D01*
X56953Y-38821D01*
X56969Y-38816D01*
X56984Y-38812D01*
X56985Y-38812D01*
X56986Y-38811D01*
X57000Y-38804D01*
X57015Y-38796D01*
X57016Y-38796D01*
X57016Y-38795D01*
X57029Y-38785D01*
X57042Y-38775D01*
X57043Y-38774D01*
X57043Y-38774D01*
X57043Y-38774D01*
X57043Y-38773D01*
X57283Y-38534D01*
X57299Y-38541D01*
X57380Y-38559D01*
X57462Y-38560D01*
X57543Y-38546D01*
X57620Y-38516D01*
X57689Y-38472D01*
X57749Y-38415D01*
X57796Y-38348D01*
X57830Y-38273D01*
X57848Y-38192D01*
X57850Y-38098D01*
X57834Y-38018D01*
X57802Y-37941D01*
X57757Y-37873D01*
X57699Y-37814D01*
X57630Y-37768D01*
X57554Y-37736D01*
X57474Y-37720D01*
X57391Y-37719D01*
X57310Y-37735D01*
X57234Y-37765D01*
X57165Y-37811D01*
X57106Y-37868D01*
X57060Y-37936D01*
X57027Y-38012D01*
X57010Y-38092D01*
X57009Y-38175D01*
X57024Y-38256D01*
X57036Y-38286D01*
X56847Y-38475D01*
X56685Y-38475D01*
X56689Y-38472D01*
X56749Y-38415D01*
X56796Y-38348D01*
X56830Y-38273D01*
X56848Y-38192D01*
X56850Y-38098D01*
X56834Y-38018D01*
X56802Y-37941D01*
X56757Y-37873D01*
X56699Y-37814D01*
X56630Y-37768D01*
X56554Y-37736D01*
X56474Y-37720D01*
X56391Y-37719D01*
X56310Y-37735D01*
X56234Y-37765D01*
X56165Y-37811D01*
X56106Y-37868D01*
X56060Y-37936D01*
X56027Y-38012D01*
X56010Y-38092D01*
X56009Y-38175D01*
X56024Y-38256D01*
X56034Y-38283D01*
X55895Y-38283D01*
X55878Y-38284D01*
X55862Y-38285D01*
X55861Y-38286D01*
X55861Y-38286D01*
X55845Y-38291D01*
X55830Y-38295D01*
X55829Y-38295D01*
X55828Y-38296D01*
X55817Y-38301D01*
X55830Y-38273D01*
X55848Y-38192D01*
X55850Y-38098D01*
X55834Y-38018D01*
X55802Y-37941D01*
X55757Y-37873D01*
X55699Y-37814D01*
X55630Y-37768D01*
X55554Y-37736D01*
X55474Y-37720D01*
X55391Y-37719D01*
X55310Y-37735D01*
X55234Y-37765D01*
X55165Y-37811D01*
X55106Y-37868D01*
X55060Y-37936D01*
X55027Y-38012D01*
X55010Y-38092D01*
X55009Y-38175D01*
X55024Y-38256D01*
X55036Y-38286D01*
X55036Y-38286D01*
X55020Y-38291D01*
X55005Y-38295D01*
X55004Y-38295D01*
X55003Y-38296D01*
X54989Y-38303D01*
X54974Y-38311D01*
X54973Y-38311D01*
X54973Y-38312D01*
X54960Y-38322D01*
X54947Y-38332D01*
X54946Y-38333D01*
X54946Y-38333D01*
X54946Y-38333D01*
X54946Y-38334D01*
X54850Y-38430D01*
X54850Y-38429D01*
X54850Y-37828D01*
X54845Y-37805D01*
X54836Y-37783D01*
X54823Y-37763D01*
X54806Y-37747D01*
X54787Y-37733D01*
X54765Y-37724D01*
X54742Y-37720D01*
X54719Y-37719D01*
X54118Y-37719D01*
X54095Y-37724D01*
X54073Y-37733D01*
X54053Y-37746D01*
X54037Y-37763D01*
X54023Y-37782D01*
X54014Y-37804D01*
X54010Y-37827D01*
X54009Y-37850D01*
X54009Y-38451D01*
X54014Y-38474D01*
X54023Y-38496D01*
X54036Y-38516D01*
X54053Y-38532D01*
X54072Y-38546D01*
X54094Y-38555D01*
X54117Y-38559D01*
X54140Y-38560D01*
X54399Y-38560D01*
X54399Y-38736D01*
X54317Y-38818D01*
X54306Y-38830D01*
X54296Y-38843D01*
X54296Y-38843D01*
X54295Y-38844D01*
X54287Y-38858D01*
X54280Y-38873D01*
X54279Y-38873D01*
X54279Y-38874D01*
X54274Y-38890D01*
X54269Y-38905D01*
X54269Y-38906D01*
X54269Y-38907D01*
X54267Y-38923D01*
X54266Y-38939D01*
X54266Y-38941D01*
X54266Y-38941D01*
X54266Y-38941D01*
X54266Y-38942D01*
X54266Y-39660D01*
X54267Y-39676D01*
X54268Y-39692D01*
X54269Y-39693D01*
X54269Y-39693D01*
X54274Y-39709D01*
X54278Y-39724D01*
X54278Y-39725D01*
X54279Y-39726D01*
X54286Y-39740D01*
X54294Y-39755D01*
X54294Y-39756D01*
X54295Y-39756D01*
X54305Y-39769D01*
X54315Y-39782D01*
X54316Y-39783D01*
X54316Y-39783D01*
X54316Y-39783D01*
X54317Y-39783D01*
X54680Y-40146D01*
X54684Y-40150D01*
X54525Y-40150D01*
X54508Y-40151D01*
X54492Y-40152D01*
X54491Y-40153D01*
X54491Y-40153D01*
X54475Y-40158D01*
X54460Y-40162D01*
X54459Y-40162D01*
X54458Y-40163D01*
X54444Y-40170D01*
X54429Y-40178D01*
X54428Y-40178D01*
X54428Y-40179D01*
X54415Y-40189D01*
X54402Y-40199D01*
X54401Y-40200D01*
X54401Y-40200D01*
X54401Y-40200D01*
X54401Y-40201D01*
X54306Y-40296D01*
X54295Y-40308D01*
X54285Y-40321D01*
X54285Y-40321D01*
X54284Y-40322D01*
X54276Y-40336D01*
X54269Y-40351D01*
X54268Y-40351D01*
X54268Y-40352D01*
X54263Y-40368D01*
X54258Y-40383D01*
X54258Y-40384D01*
X54258Y-40385D01*
X54256Y-40401D01*
X54255Y-40417D01*
X54255Y-40419D01*
X54255Y-40419D01*
X54255Y-40419D01*
X54255Y-40420D01*
X54255Y-40719D01*
X54118Y-40719D01*
X54095Y-40724D01*
X54073Y-40733D01*
X54053Y-40746D01*
X54037Y-40763D01*
X54023Y-40782D01*
X54014Y-40804D01*
X54010Y-40827D01*
X54009Y-40850D01*
X54009Y-41451D01*
X54014Y-41474D01*
X54023Y-41496D01*
X54036Y-41516D01*
X54053Y-41532D01*
X54072Y-41546D01*
X54094Y-41555D01*
X54117Y-41559D01*
X54140Y-41560D01*
X54741Y-41560D01*
X54764Y-41555D01*
X54786Y-41546D01*
X54806Y-41533D01*
X54822Y-41516D01*
X54836Y-41497D01*
X54845Y-41475D01*
X54849Y-41452D01*
X54850Y-41429D01*
X54850Y-40828D01*
X54845Y-40805D01*
X54836Y-40783D01*
X54823Y-40763D01*
X54806Y-40747D01*
X54787Y-40733D01*
X54765Y-40724D01*
X54742Y-40720D01*
X54719Y-40719D01*
X54605Y-40719D01*
X54605Y-40500D01*
X55259Y-40500D01*
X55258Y-40502D01*
X55258Y-40503D01*
X55258Y-40504D01*
X55256Y-40520D01*
X55255Y-40536D01*
X55255Y-40538D01*
X55255Y-40538D01*
X55255Y-40538D01*
X55255Y-40539D01*
X55255Y-40757D01*
X55234Y-40765D01*
X55165Y-40811D01*
X55106Y-40868D01*
X55060Y-40936D01*
X55027Y-41012D01*
X55010Y-41092D01*
X55009Y-41175D01*
X55024Y-41256D01*
X55054Y-41332D01*
X55099Y-41402D01*
X55156Y-41461D01*
X55224Y-41508D01*
X55299Y-41541D01*
X55380Y-41559D01*
X55462Y-41560D01*
X55543Y-41546D01*
X55620Y-41516D01*
X55689Y-41472D01*
X55749Y-41415D01*
X55796Y-41348D01*
X55830Y-41273D01*
X55848Y-41192D01*
X55850Y-41098D01*
X55834Y-41018D01*
X55802Y-40941D01*
X55757Y-40873D01*
X55699Y-40814D01*
X55630Y-40768D01*
X55605Y-40757D01*
X55605Y-40692D01*
X55731Y-40692D01*
X55747Y-40690D01*
X55763Y-40689D01*
X55764Y-40688D01*
X55764Y-40688D01*
X55780Y-40683D01*
X55795Y-40679D01*
X55796Y-40679D01*
X55797Y-40678D01*
X55811Y-40671D01*
X55826Y-40663D01*
X55827Y-40663D01*
X55827Y-40662D01*
X55840Y-40652D01*
X55853Y-40642D01*
X55854Y-40641D01*
X55854Y-40641D01*
X55854Y-40641D01*
X55854Y-40640D01*
X55953Y-40542D01*
X56258Y-40542D01*
X56256Y-40556D01*
X56255Y-40572D01*
X56255Y-40574D01*
X56255Y-40574D01*
X56255Y-40574D01*
X56255Y-40575D01*
X56255Y-40757D01*
X56234Y-40765D01*
X56165Y-40811D01*
X56106Y-40868D01*
X56060Y-40936D01*
X56027Y-41012D01*
X56010Y-41092D01*
X56009Y-41175D01*
X56024Y-41256D01*
X56054Y-41332D01*
X56099Y-41402D01*
X56156Y-41461D01*
X56224Y-41508D01*
X56299Y-41541D01*
X56380Y-41559D01*
X56462Y-41560D01*
X56543Y-41546D01*
X56620Y-41516D01*
X56689Y-41472D01*
X56749Y-41415D01*
X56796Y-41348D01*
X56830Y-41273D01*
X56848Y-41192D01*
X56850Y-41098D01*
X56834Y-41018D01*
X56802Y-40941D01*
X56757Y-40873D01*
X56699Y-40814D01*
X56630Y-40768D01*
X56605Y-40757D01*
X56605Y-40734D01*
X57044Y-40734D01*
X57060Y-40732D01*
X57076Y-40731D01*
X57077Y-40730D01*
X57077Y-40730D01*
X57093Y-40725D01*
X57108Y-40721D01*
X57109Y-40721D01*
X57110Y-40720D01*
X57124Y-40713D01*
X57139Y-40705D01*
X57140Y-40705D01*
X57140Y-40704D01*
X57153Y-40694D01*
X57166Y-40684D01*
X57167Y-40683D01*
X57167Y-40683D01*
X57167Y-40683D01*
X57167Y-40682D01*
X57175Y-40675D01*
X57280Y-40675D01*
X57276Y-40680D01*
X57269Y-40695D01*
X57268Y-40695D01*
X57268Y-40696D01*
X57263Y-40712D01*
X57258Y-40727D01*
X57258Y-40728D01*
X57258Y-40729D01*
X57256Y-40745D01*
X57255Y-40757D01*
X57234Y-40765D01*
X57165Y-40811D01*
X57106Y-40868D01*
X57060Y-40936D01*
X57027Y-41012D01*
X57010Y-41092D01*
X57009Y-41175D01*
X57024Y-41256D01*
X57054Y-41332D01*
X57099Y-41402D01*
X57156Y-41461D01*
X57224Y-41508D01*
X57299Y-41541D01*
X57380Y-41559D01*
X57462Y-41560D01*
X57543Y-41546D01*
X57620Y-41516D01*
X57689Y-41472D01*
X57749Y-41415D01*
X57796Y-41348D01*
X57830Y-41273D01*
X57848Y-41192D01*
X57850Y-41098D01*
X57834Y-41018D01*
X57802Y-40941D01*
X57757Y-40873D01*
X57750Y-40867D01*
X58108Y-40867D01*
X58106Y-40868D01*
X58060Y-40936D01*
X58027Y-41012D01*
X58010Y-41092D01*
X58009Y-41175D01*
X58024Y-41256D01*
X58054Y-41332D01*
X58099Y-41402D01*
X58156Y-41461D01*
X58224Y-41508D01*
X58299Y-41541D01*
X58380Y-41559D01*
X58462Y-41560D01*
X58543Y-41546D01*
X58620Y-41516D01*
X58689Y-41472D01*
X58749Y-41415D01*
X58796Y-41348D01*
X58830Y-41273D01*
X58848Y-41192D01*
X58850Y-41098D01*
X58850Y-41640D01*
X53960Y-41640D01*
X53960Y-37710D01*
X58890Y-37710D01*
X58890Y-41640D01*
X58890Y-41640D01*
G37*
G54D15*
X58890Y-41640D02*
X58850Y-41640D01*
X58850Y-41098D01*
X58850Y-38098D01*
X58834Y-38018D01*
X58802Y-37941D01*
X58757Y-37873D01*
X58699Y-37814D01*
X58630Y-37768D01*
X58554Y-37736D01*
X58474Y-37720D01*
X58391Y-37719D01*
X58310Y-37735D01*
X58234Y-37765D01*
X58165Y-37811D01*
X58106Y-37868D01*
X58060Y-37936D01*
X58027Y-38012D01*
X58010Y-38092D01*
X58009Y-38175D01*
X58024Y-38256D01*
X58054Y-38332D01*
X58099Y-38402D01*
X58156Y-38461D01*
X58224Y-38508D01*
X58299Y-38541D01*
X58380Y-38559D01*
X58462Y-38560D01*
X58543Y-38546D01*
X58620Y-38516D01*
X58689Y-38472D01*
X58749Y-38415D01*
X58796Y-38348D01*
X58830Y-38273D01*
X58848Y-38192D01*
X58850Y-38098D01*
X58850Y-41098D01*
X58834Y-41018D01*
X58802Y-40941D01*
X58757Y-40873D01*
X58699Y-40814D01*
X58630Y-40768D01*
X58554Y-40736D01*
X58474Y-40720D01*
X58391Y-40719D01*
X58370Y-40723D01*
X58540Y-40553D01*
X58551Y-40541D01*
X58561Y-40528D01*
X58561Y-40528D01*
X58562Y-40527D01*
X58570Y-40513D01*
X58577Y-40498D01*
X58578Y-40498D01*
X58578Y-40497D01*
X58583Y-40481D01*
X58588Y-40466D01*
X58588Y-40465D01*
X58588Y-40464D01*
X58590Y-40448D01*
X58591Y-40432D01*
X58591Y-40430D01*
X58591Y-40430D01*
X58591Y-40430D01*
X58592Y-40430D01*
X58592Y-39695D01*
X58590Y-39678D01*
X58589Y-39662D01*
X58588Y-39661D01*
X58588Y-39661D01*
X58583Y-39645D01*
X58579Y-39630D01*
X58579Y-39629D01*
X58578Y-39628D01*
X58571Y-39614D01*
X58563Y-39599D01*
X58563Y-39598D01*
X58562Y-39598D01*
X58552Y-39585D01*
X58542Y-39572D01*
X58541Y-39571D01*
X58541Y-39571D01*
X58541Y-39571D01*
X58540Y-39571D01*
X58286Y-39316D01*
X58284Y-39314D01*
X58274Y-39301D01*
X58273Y-39300D01*
X58273Y-39300D01*
X58273Y-39300D01*
X58272Y-39300D01*
X58105Y-39133D01*
X58093Y-39122D01*
X58080Y-39112D01*
X58080Y-39112D01*
X58079Y-39111D01*
X58065Y-39103D01*
X58050Y-39096D01*
X58050Y-39095D01*
X58049Y-39095D01*
X58033Y-39090D01*
X58018Y-39085D01*
X58017Y-39085D01*
X58016Y-39085D01*
X58000Y-39083D01*
X57984Y-39082D01*
X57982Y-39082D01*
X57982Y-39082D01*
X57982Y-39082D01*
X57982Y-39082D01*
X57873Y-39082D01*
X57852Y-39073D01*
X57829Y-39068D01*
X57806Y-39068D01*
X57333Y-39068D01*
X57310Y-39073D01*
X57288Y-39082D01*
X57268Y-39095D01*
X57252Y-39111D01*
X57238Y-39131D01*
X57229Y-39152D01*
X57225Y-39175D01*
X57224Y-39199D01*
X57224Y-39337D01*
X57229Y-39360D01*
X57238Y-39382D01*
X57240Y-39384D01*
X57238Y-39387D01*
X57229Y-39408D01*
X57225Y-39431D01*
X57224Y-39455D01*
X57224Y-39593D01*
X57229Y-39616D01*
X57238Y-39638D01*
X57239Y-39639D01*
X57238Y-39641D01*
X57229Y-39662D01*
X57225Y-39685D01*
X57224Y-39709D01*
X57224Y-39847D01*
X57225Y-39848D01*
X57027Y-39848D01*
X57010Y-39849D01*
X56994Y-39850D01*
X56993Y-39851D01*
X56993Y-39851D01*
X56977Y-39856D01*
X56962Y-39860D01*
X56961Y-39860D01*
X56960Y-39861D01*
X56946Y-39868D01*
X56931Y-39876D01*
X56930Y-39876D01*
X56930Y-39877D01*
X56917Y-39887D01*
X56904Y-39897D01*
X56903Y-39898D01*
X56903Y-39898D01*
X56903Y-39898D01*
X56903Y-39899D01*
X56802Y-40000D01*
X55800Y-40000D01*
X55783Y-40001D01*
X55767Y-40002D01*
X55766Y-40003D01*
X55766Y-40003D01*
X55750Y-40008D01*
X55735Y-40012D01*
X55734Y-40012D01*
X55733Y-40013D01*
X55719Y-40020D01*
X55704Y-40028D01*
X55703Y-40028D01*
X55703Y-40029D01*
X55690Y-40039D01*
X55677Y-40049D01*
X55676Y-40050D01*
X55676Y-40050D01*
X55676Y-40050D01*
X55676Y-40051D01*
X55635Y-40092D01*
X55635Y-40080D01*
X55635Y-39942D01*
X55630Y-39919D01*
X55621Y-39897D01*
X55619Y-39895D01*
X55621Y-39892D01*
X55630Y-39871D01*
X55634Y-39848D01*
X55635Y-39824D01*
X55635Y-39686D01*
X55630Y-39663D01*
X55621Y-39641D01*
X55620Y-39640D01*
X55621Y-39638D01*
X55630Y-39617D01*
X55634Y-39594D01*
X55635Y-39570D01*
X55635Y-39432D01*
X55630Y-39409D01*
X55621Y-39387D01*
X55619Y-39385D01*
X55621Y-39382D01*
X55630Y-39361D01*
X55634Y-39338D01*
X55635Y-39314D01*
X55635Y-39176D01*
X55630Y-39153D01*
X55621Y-39131D01*
X55608Y-39112D01*
X55591Y-39095D01*
X55572Y-39082D01*
X55550Y-39073D01*
X55527Y-39068D01*
X55504Y-39068D01*
X55390Y-39068D01*
X55339Y-39017D01*
X55783Y-39017D01*
X55799Y-39015D01*
X55815Y-39014D01*
X55816Y-39013D01*
X55816Y-39013D01*
X55832Y-39008D01*
X55847Y-39004D01*
X55848Y-39004D01*
X55849Y-39003D01*
X55863Y-38996D01*
X55878Y-38988D01*
X55879Y-38988D01*
X55879Y-38987D01*
X55892Y-38977D01*
X55905Y-38967D01*
X55906Y-38966D01*
X55906Y-38966D01*
X55906Y-38966D01*
X55906Y-38965D01*
X56047Y-38825D01*
X56920Y-38825D01*
X56936Y-38823D01*
X56952Y-38822D01*
X56953Y-38821D01*
X56953Y-38821D01*
X56969Y-38816D01*
X56984Y-38812D01*
X56985Y-38812D01*
X56986Y-38811D01*
X57000Y-38804D01*
X57015Y-38796D01*
X57016Y-38796D01*
X57016Y-38795D01*
X57029Y-38785D01*
X57042Y-38775D01*
X57043Y-38774D01*
X57043Y-38774D01*
X57043Y-38774D01*
X57043Y-38773D01*
X57283Y-38534D01*
X57299Y-38541D01*
X57380Y-38559D01*
X57462Y-38560D01*
X57543Y-38546D01*
X57620Y-38516D01*
X57689Y-38472D01*
X57749Y-38415D01*
X57796Y-38348D01*
X57830Y-38273D01*
X57848Y-38192D01*
X57850Y-38098D01*
X57834Y-38018D01*
X57802Y-37941D01*
X57757Y-37873D01*
X57699Y-37814D01*
X57630Y-37768D01*
X57554Y-37736D01*
X57474Y-37720D01*
X57391Y-37719D01*
X57310Y-37735D01*
X57234Y-37765D01*
X57165Y-37811D01*
X57106Y-37868D01*
X57060Y-37936D01*
X57027Y-38012D01*
X57010Y-38092D01*
X57009Y-38175D01*
X57024Y-38256D01*
X57036Y-38286D01*
X56847Y-38475D01*
X56685Y-38475D01*
X56689Y-38472D01*
X56749Y-38415D01*
X56796Y-38348D01*
X56830Y-38273D01*
X56848Y-38192D01*
X56850Y-38098D01*
X56834Y-38018D01*
X56802Y-37941D01*
X56757Y-37873D01*
X56699Y-37814D01*
X56630Y-37768D01*
X56554Y-37736D01*
X56474Y-37720D01*
X56391Y-37719D01*
X56310Y-37735D01*
X56234Y-37765D01*
X56165Y-37811D01*
X56106Y-37868D01*
X56060Y-37936D01*
X56027Y-38012D01*
X56010Y-38092D01*
X56009Y-38175D01*
X56024Y-38256D01*
X56034Y-38283D01*
X55895Y-38283D01*
X55878Y-38284D01*
X55862Y-38285D01*
X55861Y-38286D01*
X55861Y-38286D01*
X55845Y-38291D01*
X55830Y-38295D01*
X55829Y-38295D01*
X55828Y-38296D01*
X55817Y-38301D01*
X55830Y-38273D01*
X55848Y-38192D01*
X55850Y-38098D01*
X55834Y-38018D01*
X55802Y-37941D01*
X55757Y-37873D01*
X55699Y-37814D01*
X55630Y-37768D01*
X55554Y-37736D01*
X55474Y-37720D01*
X55391Y-37719D01*
X55310Y-37735D01*
X55234Y-37765D01*
X55165Y-37811D01*
X55106Y-37868D01*
X55060Y-37936D01*
X55027Y-38012D01*
X55010Y-38092D01*
X55009Y-38175D01*
X55024Y-38256D01*
X55036Y-38286D01*
X55036Y-38286D01*
X55020Y-38291D01*
X55005Y-38295D01*
X55004Y-38295D01*
X55003Y-38296D01*
X54989Y-38303D01*
X54974Y-38311D01*
X54973Y-38311D01*
X54973Y-38312D01*
X54960Y-38322D01*
X54947Y-38332D01*
X54946Y-38333D01*
X54946Y-38333D01*
X54946Y-38333D01*
X54946Y-38334D01*
X54850Y-38430D01*
X54850Y-38429D01*
X54850Y-37828D01*
X54845Y-37805D01*
X54836Y-37783D01*
X54823Y-37763D01*
X54806Y-37747D01*
X54787Y-37733D01*
X54765Y-37724D01*
X54742Y-37720D01*
X54719Y-37719D01*
X54118Y-37719D01*
X54095Y-37724D01*
X54073Y-37733D01*
X54053Y-37746D01*
X54037Y-37763D01*
X54023Y-37782D01*
X54014Y-37804D01*
X54010Y-37827D01*
X54009Y-37850D01*
X54009Y-38451D01*
X54014Y-38474D01*
X54023Y-38496D01*
X54036Y-38516D01*
X54053Y-38532D01*
X54072Y-38546D01*
X54094Y-38555D01*
X54117Y-38559D01*
X54140Y-38560D01*
X54399Y-38560D01*
X54399Y-38736D01*
X54317Y-38818D01*
X54306Y-38830D01*
X54296Y-38843D01*
X54296Y-38843D01*
X54295Y-38844D01*
X54287Y-38858D01*
X54280Y-38873D01*
X54279Y-38873D01*
X54279Y-38874D01*
X54274Y-38890D01*
X54269Y-38905D01*
X54269Y-38906D01*
X54269Y-38907D01*
X54267Y-38923D01*
X54266Y-38939D01*
X54266Y-38941D01*
X54266Y-38941D01*
X54266Y-38941D01*
X54266Y-38942D01*
X54266Y-39660D01*
X54267Y-39676D01*
X54268Y-39692D01*
X54269Y-39693D01*
X54269Y-39693D01*
X54274Y-39709D01*
X54278Y-39724D01*
X54278Y-39725D01*
X54279Y-39726D01*
X54286Y-39740D01*
X54294Y-39755D01*
X54294Y-39756D01*
X54295Y-39756D01*
X54305Y-39769D01*
X54315Y-39782D01*
X54316Y-39783D01*
X54316Y-39783D01*
X54316Y-39783D01*
X54317Y-39783D01*
X54680Y-40146D01*
X54684Y-40150D01*
X54525Y-40150D01*
X54508Y-40151D01*
X54492Y-40152D01*
X54491Y-40153D01*
X54491Y-40153D01*
X54475Y-40158D01*
X54460Y-40162D01*
X54459Y-40162D01*
X54458Y-40163D01*
X54444Y-40170D01*
X54429Y-40178D01*
X54428Y-40178D01*
X54428Y-40179D01*
X54415Y-40189D01*
X54402Y-40199D01*
X54401Y-40200D01*
X54401Y-40200D01*
X54401Y-40200D01*
X54401Y-40201D01*
X54306Y-40296D01*
X54295Y-40308D01*
X54285Y-40321D01*
X54285Y-40321D01*
X54284Y-40322D01*
X54276Y-40336D01*
X54269Y-40351D01*
X54268Y-40351D01*
X54268Y-40352D01*
X54263Y-40368D01*
X54258Y-40383D01*
X54258Y-40384D01*
X54258Y-40385D01*
X54256Y-40401D01*
X54255Y-40417D01*
X54255Y-40419D01*
X54255Y-40419D01*
X54255Y-40419D01*
X54255Y-40420D01*
X54255Y-40719D01*
X54118Y-40719D01*
X54095Y-40724D01*
X54073Y-40733D01*
X54053Y-40746D01*
X54037Y-40763D01*
X54023Y-40782D01*
X54014Y-40804D01*
X54010Y-40827D01*
X54009Y-40850D01*
X54009Y-41451D01*
X54014Y-41474D01*
X54023Y-41496D01*
X54036Y-41516D01*
X54053Y-41532D01*
X54072Y-41546D01*
X54094Y-41555D01*
X54117Y-41559D01*
X54140Y-41560D01*
X54741Y-41560D01*
X54764Y-41555D01*
X54786Y-41546D01*
X54806Y-41533D01*
X54822Y-41516D01*
X54836Y-41497D01*
X54845Y-41475D01*
X54849Y-41452D01*
X54850Y-41429D01*
X54850Y-40828D01*
X54845Y-40805D01*
X54836Y-40783D01*
X54823Y-40763D01*
X54806Y-40747D01*
X54787Y-40733D01*
X54765Y-40724D01*
X54742Y-40720D01*
X54719Y-40719D01*
X54605Y-40719D01*
X54605Y-40500D01*
X55259Y-40500D01*
X55258Y-40502D01*
X55258Y-40503D01*
X55258Y-40504D01*
X55256Y-40520D01*
X55255Y-40536D01*
X55255Y-40538D01*
X55255Y-40538D01*
X55255Y-40538D01*
X55255Y-40539D01*
X55255Y-40757D01*
X55234Y-40765D01*
X55165Y-40811D01*
X55106Y-40868D01*
X55060Y-40936D01*
X55027Y-41012D01*
X55010Y-41092D01*
X55009Y-41175D01*
X55024Y-41256D01*
X55054Y-41332D01*
X55099Y-41402D01*
X55156Y-41461D01*
X55224Y-41508D01*
X55299Y-41541D01*
X55380Y-41559D01*
X55462Y-41560D01*
X55543Y-41546D01*
X55620Y-41516D01*
X55689Y-41472D01*
X55749Y-41415D01*
X55796Y-41348D01*
X55830Y-41273D01*
X55848Y-41192D01*
X55850Y-41098D01*
X55834Y-41018D01*
X55802Y-40941D01*
X55757Y-40873D01*
X55699Y-40814D01*
X55630Y-40768D01*
X55605Y-40757D01*
X55605Y-40692D01*
X55731Y-40692D01*
X55747Y-40690D01*
X55763Y-40689D01*
X55764Y-40688D01*
X55764Y-40688D01*
X55780Y-40683D01*
X55795Y-40679D01*
X55796Y-40679D01*
X55797Y-40678D01*
X55811Y-40671D01*
X55826Y-40663D01*
X55827Y-40663D01*
X55827Y-40662D01*
X55840Y-40652D01*
X55853Y-40642D01*
X55854Y-40641D01*
X55854Y-40641D01*
X55854Y-40641D01*
X55854Y-40640D01*
X55953Y-40542D01*
X56258Y-40542D01*
X56256Y-40556D01*
X56255Y-40572D01*
X56255Y-40574D01*
X56255Y-40574D01*
X56255Y-40574D01*
X56255Y-40575D01*
X56255Y-40757D01*
X56234Y-40765D01*
X56165Y-40811D01*
X56106Y-40868D01*
X56060Y-40936D01*
X56027Y-41012D01*
X56010Y-41092D01*
X56009Y-41175D01*
X56024Y-41256D01*
X56054Y-41332D01*
X56099Y-41402D01*
X56156Y-41461D01*
X56224Y-41508D01*
X56299Y-41541D01*
X56380Y-41559D01*
X56462Y-41560D01*
X56543Y-41546D01*
X56620Y-41516D01*
X56689Y-41472D01*
X56749Y-41415D01*
X56796Y-41348D01*
X56830Y-41273D01*
X56848Y-41192D01*
X56850Y-41098D01*
X56834Y-41018D01*
X56802Y-40941D01*
X56757Y-40873D01*
X56699Y-40814D01*
X56630Y-40768D01*
X56605Y-40757D01*
X56605Y-40734D01*
X57044Y-40734D01*
X57060Y-40732D01*
X57076Y-40731D01*
X57077Y-40730D01*
X57077Y-40730D01*
X57093Y-40725D01*
X57108Y-40721D01*
X57109Y-40721D01*
X57110Y-40720D01*
X57124Y-40713D01*
X57139Y-40705D01*
X57140Y-40705D01*
X57140Y-40704D01*
X57153Y-40694D01*
X57166Y-40684D01*
X57167Y-40683D01*
X57167Y-40683D01*
X57167Y-40683D01*
X57167Y-40682D01*
X57175Y-40675D01*
X57280Y-40675D01*
X57276Y-40680D01*
X57269Y-40695D01*
X57268Y-40695D01*
X57268Y-40696D01*
X57263Y-40712D01*
X57258Y-40727D01*
X57258Y-40728D01*
X57258Y-40729D01*
X57256Y-40745D01*
X57255Y-40757D01*
X57234Y-40765D01*
X57165Y-40811D01*
X57106Y-40868D01*
X57060Y-40936D01*
X57027Y-41012D01*
X57010Y-41092D01*
X57009Y-41175D01*
X57024Y-41256D01*
X57054Y-41332D01*
X57099Y-41402D01*
X57156Y-41461D01*
X57224Y-41508D01*
X57299Y-41541D01*
X57380Y-41559D01*
X57462Y-41560D01*
X57543Y-41546D01*
X57620Y-41516D01*
X57689Y-41472D01*
X57749Y-41415D01*
X57796Y-41348D01*
X57830Y-41273D01*
X57848Y-41192D01*
X57850Y-41098D01*
X57834Y-41018D01*
X57802Y-40941D01*
X57757Y-40873D01*
X57750Y-40867D01*
X58108Y-40867D01*
X58106Y-40868D01*
X58060Y-40936D01*
X58027Y-41012D01*
X58010Y-41092D01*
X58009Y-41175D01*
X58024Y-41256D01*
X58054Y-41332D01*
X58099Y-41402D01*
X58156Y-41461D01*
X58224Y-41508D01*
X58299Y-41541D01*
X58380Y-41559D01*
X58462Y-41560D01*
X58543Y-41546D01*
X58620Y-41516D01*
X58689Y-41472D01*
X58749Y-41415D01*
X58796Y-41348D01*
X58830Y-41273D01*
X58848Y-41192D01*
X58850Y-41098D01*
X58850Y-41640D01*
X53960Y-41640D01*
X53960Y-37710D01*
X58890Y-37710D01*
X58890Y-41640D01*
M02*
