G04 (created by PCBNEW (2013-01-21 BZR 3918)-testing) date Wed 23 Jan 2013 07:37:05 PM CET*
%MOIN*%
G04 Gerber Fmt 3.4, Leading zero omitted, Abs format*
%FSLAX34Y34*%
G01*
G70*
G90*
G04 APERTURE LIST*
%ADD10C,0.00393701*%
%ADD11C,0.005*%
%ADD12C,0.01*%
%ADD13C,0.0026*%
%ADD14C,0.008*%
%ADD15R,0.06X0.06*%
%ADD16C,0.06*%
%ADD17R,0.0098X0.0393*%
G04 APERTURE END LIST*
G54D10*
G54D11*
X57757Y-40200D02*
X57766Y-40190D01*
X57785Y-40180D01*
X57833Y-40180D01*
X57852Y-40190D01*
X57861Y-40200D01*
X57871Y-40219D01*
X57871Y-40238D01*
X57861Y-40266D01*
X57747Y-40380D01*
X57871Y-40380D01*
X57995Y-40180D02*
X58014Y-40180D01*
X58033Y-40190D01*
X58042Y-40200D01*
X58052Y-40219D01*
X58061Y-40257D01*
X58061Y-40304D01*
X58052Y-40342D01*
X58042Y-40361D01*
X58033Y-40371D01*
X58014Y-40380D01*
X57995Y-40380D01*
X57976Y-40371D01*
X57966Y-40361D01*
X57957Y-40342D01*
X57947Y-40304D01*
X57947Y-40257D01*
X57957Y-40219D01*
X57966Y-40200D01*
X57976Y-40190D01*
X57995Y-40180D01*
X58185Y-40180D02*
X58204Y-40180D01*
X58223Y-40190D01*
X58233Y-40200D01*
X58242Y-40219D01*
X58252Y-40257D01*
X58252Y-40304D01*
X58242Y-40342D01*
X58233Y-40361D01*
X58223Y-40371D01*
X58204Y-40380D01*
X58185Y-40380D01*
X58166Y-40371D01*
X58157Y-40361D01*
X58147Y-40342D01*
X58138Y-40304D01*
X58138Y-40257D01*
X58147Y-40219D01*
X58157Y-40200D01*
X58166Y-40190D01*
X58185Y-40180D01*
X58347Y-40380D02*
X58385Y-40380D01*
X58404Y-40371D01*
X58414Y-40361D01*
X58433Y-40333D01*
X58442Y-40295D01*
X58442Y-40219D01*
X58433Y-40200D01*
X58423Y-40190D01*
X58404Y-40180D01*
X58366Y-40180D01*
X58347Y-40190D01*
X58338Y-40200D01*
X58328Y-40219D01*
X58328Y-40266D01*
X58338Y-40285D01*
X58347Y-40295D01*
X58366Y-40304D01*
X58404Y-40304D01*
X58423Y-40295D01*
X58433Y-40285D01*
X58442Y-40266D01*
X55280Y-40157D02*
X55080Y-40157D01*
X55223Y-40090D01*
X55080Y-40023D01*
X55280Y-40023D01*
X55271Y-39938D02*
X55280Y-39909D01*
X55280Y-39861D01*
X55271Y-39842D01*
X55261Y-39833D01*
X55242Y-39823D01*
X55223Y-39823D01*
X55204Y-39833D01*
X55195Y-39842D01*
X55185Y-39861D01*
X55176Y-39900D01*
X55166Y-39919D01*
X55157Y-39928D01*
X55138Y-39938D01*
X55119Y-39938D01*
X55100Y-39928D01*
X55090Y-39919D01*
X55080Y-39900D01*
X55080Y-39852D01*
X55090Y-39823D01*
X55080Y-39700D02*
X55080Y-39661D01*
X55090Y-39642D01*
X55109Y-39623D01*
X55147Y-39614D01*
X55214Y-39614D01*
X55252Y-39623D01*
X55271Y-39642D01*
X55280Y-39661D01*
X55280Y-39700D01*
X55271Y-39719D01*
X55252Y-39738D01*
X55214Y-39747D01*
X55147Y-39747D01*
X55109Y-39738D01*
X55090Y-39719D01*
X55080Y-39700D01*
X55280Y-39528D02*
X55080Y-39528D01*
X55080Y-39452D01*
X55090Y-39433D01*
X55100Y-39423D01*
X55119Y-39414D01*
X55147Y-39414D01*
X55166Y-39423D01*
X55176Y-39433D01*
X55185Y-39452D01*
X55185Y-39528D01*
X55280Y-39223D02*
X55280Y-39338D01*
X55280Y-39280D02*
X55080Y-39280D01*
X55109Y-39300D01*
X55128Y-39319D01*
X55138Y-39338D01*
X55080Y-39100D02*
X55080Y-39080D01*
X55090Y-39061D01*
X55100Y-39052D01*
X55119Y-39042D01*
X55157Y-39033D01*
X55204Y-39033D01*
X55242Y-39042D01*
X55261Y-39052D01*
X55271Y-39061D01*
X55280Y-39080D01*
X55280Y-39100D01*
X55271Y-39119D01*
X55261Y-39128D01*
X55242Y-39138D01*
X55204Y-39147D01*
X55157Y-39147D01*
X55119Y-39138D01*
X55100Y-39128D01*
X55090Y-39119D01*
X55080Y-39100D01*
X54505Y-39650D02*
X54305Y-39650D01*
X54305Y-39602D01*
X54315Y-39573D01*
X54334Y-39554D01*
X54353Y-39545D01*
X54391Y-39535D01*
X54420Y-39535D01*
X54458Y-39545D01*
X54477Y-39554D01*
X54496Y-39573D01*
X54505Y-39602D01*
X54505Y-39650D01*
X54505Y-39450D02*
X54305Y-39450D01*
X54505Y-39354D02*
X54305Y-39354D01*
X54305Y-39278D01*
X54315Y-39259D01*
X54325Y-39249D01*
X54344Y-39240D01*
X54372Y-39240D01*
X54391Y-39249D01*
X54401Y-39259D01*
X54410Y-39278D01*
X54410Y-39354D01*
G54D12*
X57550Y-39675D02*
G75*
G03X57550Y-39675I-25J0D01*
G74*
G01*
X57700Y-39825D02*
G75*
G03X57700Y-39825I-25J0D01*
G74*
G01*
X58600Y-39675D02*
G75*
G03X58600Y-39675I-25J0D01*
G74*
G01*
X58450Y-39825D02*
G75*
G03X58450Y-39825I-25J0D01*
G74*
G01*
X58300Y-39975D02*
G75*
G03X58300Y-39975I-25J0D01*
G74*
G01*
X57850Y-39975D02*
G75*
G03X57850Y-39975I-25J0D01*
G74*
G01*
X58000Y-39975D02*
G75*
G03X58000Y-39975I-25J0D01*
G74*
G01*
X58150Y-39975D02*
G75*
G03X58150Y-39975I-25J0D01*
G74*
G01*
X58000Y-39525D02*
G75*
G03X58000Y-39525I-25J0D01*
G74*
G01*
X58150Y-39525D02*
G75*
G03X58150Y-39525I-25J0D01*
G74*
G01*
X58150Y-39675D02*
G75*
G03X58150Y-39675I-25J0D01*
G74*
G01*
X58000Y-39675D02*
G75*
G03X58000Y-39675I-25J0D01*
G74*
G01*
X58300Y-39075D02*
G75*
G03X58300Y-39075I-25J0D01*
G74*
G01*
X58450Y-39075D02*
G75*
G03X58450Y-39075I-25J0D01*
G74*
G01*
X58450Y-39225D02*
G75*
G03X58450Y-39225I-25J0D01*
G74*
G01*
X58300Y-39225D02*
G75*
G03X58300Y-39225I-25J0D01*
G74*
G01*
X57700Y-39225D02*
G75*
G03X57700Y-39225I-25J0D01*
G74*
G01*
X57850Y-39225D02*
G75*
G03X57850Y-39225I-25J0D01*
G74*
G01*
X57850Y-39075D02*
G75*
G03X57850Y-39075I-25J0D01*
G74*
G01*
X57700Y-39075D02*
G75*
G03X57700Y-39075I-25J0D01*
G74*
G01*
X54430Y-40190D02*
X54380Y-40090D01*
X54430Y-40190D02*
X54480Y-40090D01*
X54430Y-40440D02*
X54430Y-40090D01*
X54330Y-40090D02*
X54430Y-40290D01*
X54430Y-40290D02*
X54530Y-40090D01*
X54430Y-40340D02*
X54280Y-40090D01*
X54430Y-40340D02*
X54580Y-40090D01*
X54430Y-40390D02*
X54630Y-40090D01*
X54230Y-40090D02*
X54430Y-40390D01*
X54430Y-40490D02*
X54230Y-40090D01*
X54230Y-40090D02*
X54630Y-40090D01*
X54630Y-40090D02*
X54430Y-40490D01*
X53930Y-38690D02*
X53930Y-37640D01*
X53930Y-37640D02*
X58930Y-37640D01*
X58930Y-37640D02*
X58930Y-38690D01*
X58930Y-38690D02*
X53930Y-38690D01*
X53930Y-40640D02*
X53930Y-41690D01*
X53930Y-41690D02*
X58930Y-41690D01*
X58930Y-41690D02*
X58930Y-40640D01*
X58930Y-40640D02*
X53930Y-40640D01*
X55680Y-40040D02*
X55480Y-39940D01*
X55480Y-39940D02*
X55480Y-40140D01*
X55480Y-40140D02*
X55680Y-40040D01*
X55680Y-40040D02*
X55480Y-40040D01*
X56050Y-40090D02*
G75*
G03X56050Y-40090I-70J0D01*
G74*
G01*
G54D13*
X55988Y-40624D02*
X56086Y-40624D01*
X56086Y-40624D02*
X56086Y-40230D01*
X55988Y-40230D02*
X56086Y-40230D01*
X55988Y-40624D02*
X55988Y-40230D01*
X56185Y-40624D02*
X56283Y-40624D01*
X56283Y-40624D02*
X56283Y-40230D01*
X56185Y-40230D02*
X56283Y-40230D01*
X56185Y-40624D02*
X56185Y-40230D01*
X56382Y-40624D02*
X56479Y-40624D01*
X56479Y-40624D02*
X56479Y-40230D01*
X56382Y-40230D02*
X56479Y-40230D01*
X56382Y-40624D02*
X56382Y-40230D01*
X56577Y-40624D02*
X56676Y-40624D01*
X56676Y-40624D02*
X56676Y-40230D01*
X56577Y-40230D02*
X56676Y-40230D01*
X56577Y-40624D02*
X56577Y-40230D01*
X56774Y-40624D02*
X56873Y-40624D01*
X56873Y-40624D02*
X56873Y-40230D01*
X56774Y-40230D02*
X56873Y-40230D01*
X56774Y-40624D02*
X56774Y-40230D01*
X56774Y-39050D02*
X56872Y-39050D01*
X56872Y-39050D02*
X56872Y-38656D01*
X56774Y-38656D02*
X56872Y-38656D01*
X56774Y-39050D02*
X56774Y-38656D01*
X56577Y-39050D02*
X56675Y-39050D01*
X56675Y-39050D02*
X56675Y-38656D01*
X56577Y-38656D02*
X56675Y-38656D01*
X56577Y-39050D02*
X56577Y-38656D01*
X56381Y-39050D02*
X56478Y-39050D01*
X56478Y-39050D02*
X56478Y-38656D01*
X56381Y-38656D02*
X56478Y-38656D01*
X56381Y-39050D02*
X56381Y-38656D01*
X56184Y-39050D02*
X56283Y-39050D01*
X56283Y-39050D02*
X56283Y-38656D01*
X56184Y-38656D02*
X56283Y-38656D01*
X56184Y-39050D02*
X56184Y-38656D01*
X55987Y-39050D02*
X56086Y-39050D01*
X56086Y-39050D02*
X56086Y-38656D01*
X55987Y-38656D02*
X56086Y-38656D01*
X55987Y-39050D02*
X55987Y-38656D01*
G54D14*
X55879Y-39089D02*
X56981Y-39089D01*
X56981Y-39089D02*
X56981Y-40191D01*
X56981Y-40191D02*
X55879Y-40191D01*
X55879Y-40191D02*
X55879Y-39089D01*
%LPC*%
G54D15*
X54430Y-41140D03*
G54D16*
X55430Y-41140D03*
X56430Y-41140D03*
X57430Y-41140D03*
X58430Y-41140D03*
X58430Y-38140D03*
X57430Y-38140D03*
X56430Y-38140D03*
X55430Y-38140D03*
G54D15*
X54430Y-38140D03*
G54D17*
X56037Y-40471D03*
X56234Y-40471D03*
X56430Y-40471D03*
X56626Y-40471D03*
X56823Y-40471D03*
X56823Y-38809D03*
X56626Y-38809D03*
X56430Y-38809D03*
X56234Y-38809D03*
X56037Y-38809D03*
G54D15*
X56430Y-39640D03*
X56430Y-39640D03*
M02*
