G04 (created by PCBnew (20090216-final)) date Wed 11 Nov 2009 11:18:36 PM CET*
G01*
G70*
G90*
%MOIN*%
G04 Gerber Fmt 3.4, Leading zero omitted, Abs format*
%FSLAX34Y34*%
G04 APERTURE LIST*
%ADD10C,0.015000*%
%ADD11R,0.060000X0.060000*%
%ADD12R,0.047200X0.013700*%
%ADD13R,0.055000X0.055000*%
%ADD14C,0.055000*%
%ADD15C,0.011000*%
%ADD16C,0.009000*%
%ADD17R,0.009800X0.039300*%
%ADD18C,0.010000*%
%ADD19C,0.015000*%
%ADD20C,0.002600*%
%ADD21C,0.008000*%
%ADD22R,0.072000X0.072000*%
%ADD23R,0.059200X0.025700*%
%ADD24R,0.067000X0.067000*%
%ADD25C,0.067000*%
%ADD26R,0.021800X0.051300*%
G04 APERTURE END LIST*
G54D10*
X-00680Y-03710D02*
X-00680Y00640D01*
X04670Y00640D02*
X04670Y-03710D01*
X-00680Y00640D02*
X04670Y00640D01*
X-00680Y-03710D02*
X04670Y-03710D01*
G54D11*
X02000Y-01500D03*
G54D12*
X00849Y-01883D03*
X00849Y-01627D03*
X00849Y-01373D03*
X00849Y-01117D03*
X03151Y-01117D03*
X03151Y-01373D03*
X03151Y-01627D03*
X03151Y-01883D03*
G54D11*
X02000Y-01500D03*
G54D13*
X00000Y-03000D03*
G54D14*
X01000Y-03000D03*
X02000Y-03000D03*
X03000Y-03000D03*
X04000Y-03000D03*
X04000Y00000D03*
X03000Y00000D03*
X02000Y00000D03*
X01000Y00000D03*
G54D13*
X00000Y00000D03*
G54D15*
X03151Y-01883D02*
X02597Y-01883D01*
X00000Y-02280D02*
X00000Y-03000D01*
X00095Y-02185D02*
X00000Y-02280D01*
X01220Y-02185D02*
X00095Y-02185D01*
X01370Y-02035D02*
X01220Y-02185D01*
X02445Y-02035D02*
X01370Y-02035D01*
X02597Y-01883D02*
X02445Y-02035D01*
X01000Y-03000D02*
X01000Y-02399D01*
X03487Y-01627D02*
X03151Y-01627D01*
X03595Y-01735D02*
X03487Y-01627D01*
X03595Y-02110D02*
X03595Y-01735D01*
X03545Y-02160D02*
X03595Y-02110D01*
X02593Y-02160D02*
X03545Y-02160D01*
X02526Y-02227D02*
X02593Y-02160D01*
X01451Y-02227D02*
X02526Y-02227D01*
X01301Y-02377D02*
X01451Y-02227D01*
X01022Y-02377D02*
X01301Y-02377D01*
X01000Y-02399D02*
X01022Y-02377D01*
X02000Y-03000D02*
X02000Y-02435D01*
X03533Y-01373D02*
X03151Y-01373D01*
X03795Y-01635D02*
X03533Y-01373D01*
X03795Y-02210D02*
X03795Y-01635D01*
X03645Y-02360D02*
X03795Y-02210D01*
X02673Y-02360D02*
X03645Y-02360D01*
X02614Y-02419D02*
X02673Y-02360D01*
X02016Y-02419D02*
X02614Y-02419D01*
X02000Y-02435D02*
X02016Y-02419D01*
X03000Y-03000D02*
X03000Y-02624D01*
X03552Y-01117D02*
X03151Y-01117D01*
X03719Y-01284D02*
X03552Y-01117D01*
X03719Y-01287D02*
X03719Y-01284D01*
X03987Y-01555D02*
X03719Y-01287D01*
X03987Y-02290D02*
X03987Y-01555D01*
X03725Y-02552D02*
X03987Y-02290D01*
X03072Y-02552D02*
X03725Y-02552D01*
X03000Y-02624D02*
X03072Y-02552D01*
X00849Y-01117D02*
X00849Y-01064D01*
X02490Y-00510D02*
X03000Y00000D01*
X01545Y-00510D02*
X02490Y-00510D01*
X01353Y-00702D02*
X01545Y-00510D01*
X00800Y-00702D02*
X01353Y-00702D01*
X00720Y-00782D02*
X00800Y-00702D01*
X00720Y-00935D02*
X00720Y-00782D01*
X00849Y-01064D02*
X00720Y-00935D01*
X00849Y-01373D02*
X00408Y-01373D01*
X01682Y-00318D02*
X02000Y00000D01*
X01465Y-00318D02*
X01682Y-00318D01*
X01273Y-00510D02*
X01465Y-00318D01*
X00720Y-00510D02*
X01273Y-00510D01*
X00528Y-00702D02*
X00720Y-00510D01*
X00528Y-00829D02*
X00528Y-00702D01*
X00395Y-00962D02*
X00528Y-00829D01*
X00395Y-01360D02*
X00395Y-00962D01*
X00408Y-01373D02*
X00395Y-01360D01*
X00849Y-01627D02*
X00390Y-01627D01*
X01000Y-00251D02*
X01000Y00000D01*
X00933Y-00318D02*
X01000Y-00251D01*
X00640Y-00318D02*
X00933Y-00318D01*
X00336Y-00622D02*
X00640Y-00318D01*
X00336Y-00749D02*
X00336Y-00622D01*
X00203Y-00882D02*
X00336Y-00749D01*
X00203Y-01440D02*
X00203Y-00882D01*
X00390Y-01627D02*
X00203Y-01440D01*
X00849Y-01883D02*
X00374Y-01883D01*
X00144Y-00144D02*
X00000Y00000D01*
X00144Y-00669D02*
X00144Y-00144D01*
X00011Y-00802D02*
X00144Y-00669D01*
X00011Y-01520D02*
X00011Y-00802D01*
X00374Y-01883D02*
X00011Y-01520D01*
G36*
X04455Y-03495D02*
X04455Y00425D01*
X-00465Y00425D01*
X-00465Y-03495D01*
X04031Y-03495D01*
X04031Y-03410D01*
X03951Y-03408D01*
X03873Y-03391D01*
X03799Y-03359D01*
X03734Y-03313D01*
X03678Y-03255D01*
X03634Y-03188D01*
X03605Y-03113D01*
X03590Y-03034D01*
X03592Y-02954D01*
X03608Y-02876D01*
X03640Y-02802D01*
X03680Y-02742D01*
X03320Y-02742D01*
X03363Y-02807D01*
X03393Y-02881D01*
X03409Y-02960D01*
X03408Y-03052D01*
X03390Y-03130D01*
X03357Y-03203D01*
X03311Y-03269D01*
X03253Y-03324D01*
X03185Y-03367D01*
X03110Y-03396D01*
X03031Y-03410D01*
X02951Y-03408D01*
X02873Y-03391D01*
X02799Y-03359D01*
X02734Y-03313D01*
X02678Y-03255D01*
X02634Y-03188D01*
X02605Y-03113D01*
X02590Y-03034D01*
X02592Y-02954D01*
X02608Y-02876D01*
X02640Y-02802D01*
X02685Y-02736D01*
X02743Y-02680D01*
X02810Y-02636D01*
X02810Y-02624D01*
X02810Y-02623D01*
X02810Y-02623D01*
X02810Y-02614D01*
X02814Y-02584D01*
X02824Y-02550D01*
X02751Y-02550D01*
X02748Y-02554D01*
X02729Y-02569D01*
X02717Y-02579D01*
X02685Y-02596D01*
X02649Y-02606D01*
X02620Y-02608D01*
X02614Y-02609D01*
X02612Y-02609D01*
X02190Y-02609D01*
X02190Y-02636D01*
X02196Y-02639D01*
X02262Y-02683D01*
X02319Y-02740D01*
X02363Y-02807D01*
X02393Y-02881D01*
X02409Y-02960D01*
X02408Y-03052D01*
X02390Y-03130D01*
X02357Y-03203D01*
X02311Y-03269D01*
X02253Y-03324D01*
X02185Y-03367D01*
X02110Y-03396D01*
X02031Y-03410D01*
X01951Y-03408D01*
X01873Y-03391D01*
X01799Y-03359D01*
X01734Y-03313D01*
X01678Y-03255D01*
X01634Y-03188D01*
X01605Y-03113D01*
X01590Y-03034D01*
X01592Y-02954D01*
X01608Y-02876D01*
X01640Y-02802D01*
X01685Y-02736D01*
X01743Y-02680D01*
X01810Y-02636D01*
X01810Y-02435D01*
X01810Y-02434D01*
X01810Y-02434D01*
X01810Y-02425D01*
X01811Y-02417D01*
X01529Y-02417D01*
X01439Y-02506D01*
X01435Y-02512D01*
X01416Y-02527D01*
X01404Y-02537D01*
X01372Y-02554D01*
X01336Y-02564D01*
X01306Y-02566D01*
X01301Y-02567D01*
X01299Y-02567D01*
X01190Y-02567D01*
X01190Y-02636D01*
X01196Y-02639D01*
X01262Y-02683D01*
X01319Y-02740D01*
X01363Y-02807D01*
X01393Y-02881D01*
X01409Y-02960D01*
X01408Y-03052D01*
X01390Y-03130D01*
X01357Y-03203D01*
X01311Y-03269D01*
X01253Y-03324D01*
X01185Y-03367D01*
X01110Y-03396D01*
X01031Y-03410D01*
X00951Y-03408D01*
X00873Y-03391D01*
X00799Y-03359D01*
X00734Y-03313D01*
X00678Y-03255D01*
X00634Y-03188D01*
X00605Y-03113D01*
X00590Y-03034D01*
X00592Y-02954D01*
X00608Y-02876D01*
X00640Y-02802D01*
X00685Y-02736D01*
X00743Y-02680D01*
X00810Y-02636D01*
X00810Y-02399D01*
X00810Y-02398D01*
X00810Y-02398D01*
X00811Y-02388D01*
X00812Y-02375D01*
X00190Y-02375D01*
X00190Y-02591D01*
X00289Y-02591D01*
X00315Y-02596D01*
X00339Y-02607D01*
X00361Y-02621D01*
X00379Y-02640D01*
X00394Y-02662D01*
X00404Y-02686D01*
X00409Y-02712D01*
X00409Y-03289D01*
X00404Y-03315D01*
X00393Y-03339D01*
X00379Y-03361D01*
X00360Y-03379D01*
X00338Y-03394D01*
X00314Y-03404D01*
X00288Y-03409D01*
X-00289Y-03409D01*
X-00315Y-03404D01*
X-00339Y-03393D01*
X-00361Y-03379D01*
X-00379Y-03360D01*
X-00394Y-03338D01*
X-00404Y-03314D01*
X-00409Y-03288D01*
X-00409Y-02711D01*
X-00404Y-02685D01*
X-00393Y-02661D01*
X-00379Y-02639D01*
X-00360Y-02621D01*
X-00338Y-02606D01*
X-00314Y-02596D01*
X-00288Y-02591D01*
X-00190Y-02591D01*
X-00190Y-02279D01*
X-00190Y-02277D01*
X-00186Y-02240D01*
X-00175Y-02205D01*
X-00157Y-02173D01*
X-00133Y-02144D01*
X-00129Y-02140D01*
X-00040Y-02051D01*
X-00040Y-02050D01*
X-00039Y-02050D01*
X-00030Y-02042D01*
X-00008Y-02025D01*
X00024Y-02008D01*
X00048Y-02001D01*
X00058Y-01999D01*
X00095Y-01995D01*
X00097Y-01995D01*
X00217Y-01995D01*
X-00119Y-01658D01*
X-00124Y-01654D01*
X-00140Y-01634D01*
X-00149Y-01623D01*
X-00166Y-01591D01*
X-00176Y-01555D01*
X-00179Y-01526D01*
X-00179Y-01520D01*
X-00179Y-01518D01*
X-00179Y-00802D01*
X-00179Y-00801D01*
X-00179Y-00801D01*
X-00178Y-00791D01*
X-00175Y-00762D01*
X-00164Y-00727D01*
X-00146Y-00695D01*
X-00122Y-00666D01*
X-00118Y-00662D01*
X-00046Y-00591D01*
X-00046Y-00409D01*
X-00289Y-00409D01*
X-00315Y-00404D01*
X-00339Y-00393D01*
X-00361Y-00379D01*
X-00379Y-00360D01*
X-00394Y-00338D01*
X-00404Y-00314D01*
X-00409Y-00288D01*
X-00409Y00289D01*
X-00404Y00315D01*
X-00393Y00339D01*
X-00379Y00361D01*
X-00360Y00379D01*
X-00338Y00394D01*
X-00314Y00404D01*
X-00288Y00409D01*
X00289Y00409D01*
X00315Y00404D01*
X00339Y00393D01*
X00361Y00379D01*
X00379Y00360D01*
X00394Y00338D01*
X00404Y00314D01*
X00409Y00288D01*
X00409Y-00280D01*
X00505Y-00184D01*
X00505Y-00183D01*
X00506Y-00183D01*
X00520Y-00171D01*
X00536Y-00159D01*
X00551Y-00151D01*
X00568Y-00142D01*
X00603Y-00132D01*
X00611Y-00131D01*
X00605Y-00113D01*
X00590Y-00034D01*
X00592Y00046D01*
X00608Y00124D01*
X00640Y00198D01*
X00685Y00264D01*
X00743Y00320D01*
X00810Y00364D01*
X00884Y00394D01*
X00963Y00409D01*
X01043Y00409D01*
X01122Y00393D01*
X01196Y00361D01*
X01262Y00317D01*
X01319Y00260D01*
X01363Y00193D01*
X01393Y00119D01*
X01409Y00040D01*
X01408Y-00052D01*
X01390Y-00130D01*
X01381Y-00148D01*
X01393Y-00142D01*
X01428Y-00132D01*
X01465Y-00128D01*
X01467Y-00128D01*
X01603Y-00128D01*
X01608Y-00122D01*
X01605Y-00113D01*
X01590Y-00034D01*
X01592Y00046D01*
X01608Y00124D01*
X01640Y00198D01*
X01685Y00264D01*
X01743Y00320D01*
X01810Y00364D01*
X01884Y00394D01*
X01963Y00409D01*
X02043Y00409D01*
X02122Y00393D01*
X02196Y00361D01*
X02262Y00317D01*
X02319Y00260D01*
X02363Y00193D01*
X02393Y00119D01*
X02409Y00040D01*
X02408Y-00052D01*
X02390Y-00130D01*
X02357Y-00203D01*
X02311Y-00269D01*
X02257Y-00320D01*
X02411Y-00320D01*
X02608Y-00122D01*
X02605Y-00113D01*
X02590Y-00034D01*
X02592Y00046D01*
X02608Y00124D01*
X02640Y00198D01*
X02685Y00264D01*
X02743Y00320D01*
X02810Y00364D01*
X02884Y00394D01*
X02963Y00409D01*
X03043Y00409D01*
X03122Y00393D01*
X03196Y00361D01*
X03262Y00317D01*
X03319Y00260D01*
X03363Y00193D01*
X03393Y00119D01*
X03409Y00040D01*
X03408Y-00052D01*
X03390Y-00130D01*
X03357Y-00203D01*
X03311Y-00269D01*
X03253Y-00324D01*
X03185Y-00367D01*
X03110Y-00396D01*
X03031Y-00410D01*
X02951Y-00408D01*
X02876Y-00391D01*
X02628Y-00639D01*
X02624Y-00645D01*
X02605Y-00660D01*
X02593Y-00670D01*
X02561Y-00687D01*
X02525Y-00697D01*
X02496Y-00699D01*
X02490Y-00700D01*
X02488Y-00700D01*
X01623Y-00700D01*
X01491Y-00831D01*
X01487Y-00837D01*
X01467Y-00852D01*
X01456Y-00862D01*
X01424Y-00879D01*
X01388Y-00889D01*
X01359Y-00891D01*
X01353Y-00892D01*
X01351Y-00892D01*
X00945Y-00892D01*
X00968Y-00915D01*
X01099Y-00915D01*
X01125Y-00920D01*
X01149Y-00931D01*
X01171Y-00945D01*
X01189Y-00964D01*
X01204Y-00986D01*
X01214Y-01010D01*
X01219Y-01036D01*
X01219Y-01199D01*
X01214Y-01225D01*
X01205Y-01244D01*
X01214Y-01266D01*
X01219Y-01292D01*
X01219Y-01455D01*
X01214Y-01481D01*
X01205Y-01499D01*
X01214Y-01520D01*
X01219Y-01546D01*
X01219Y-01709D01*
X01214Y-01735D01*
X01205Y-01754D01*
X01214Y-01776D01*
X01219Y-01802D01*
X01219Y-01918D01*
X01231Y-01905D01*
X01236Y-01900D01*
X01257Y-01882D01*
X01267Y-01875D01*
X01299Y-01858D01*
X01335Y-01848D01*
X01364Y-01845D01*
X01370Y-01845D01*
X01372Y-01845D01*
X02366Y-01845D01*
X02462Y-01749D01*
X02462Y-01748D01*
X02463Y-01748D01*
X02477Y-01736D01*
X02493Y-01724D01*
X02508Y-01716D01*
X02525Y-01707D01*
X02560Y-01697D01*
X02597Y-01693D01*
X02598Y-01693D01*
X02781Y-01693D01*
X02781Y-01545D01*
X02786Y-01519D01*
X02794Y-01500D01*
X02786Y-01480D01*
X02781Y-01454D01*
X02781Y-01291D01*
X02786Y-01265D01*
X02794Y-01245D01*
X02786Y-01224D01*
X02781Y-01198D01*
X02781Y-01035D01*
X02786Y-01009D01*
X02797Y-00985D01*
X02811Y-00963D01*
X02830Y-00945D01*
X02852Y-00930D01*
X02876Y-00920D01*
X02902Y-00915D01*
X03401Y-00915D01*
X03427Y-00920D01*
X03442Y-00927D01*
X03552Y-00927D01*
X03552Y-00927D01*
X03553Y-00927D01*
X03562Y-00928D01*
X03592Y-00931D01*
X03627Y-00942D01*
X03659Y-00960D01*
X03688Y-00984D01*
X03691Y-00988D01*
X03848Y-01145D01*
X03854Y-01150D01*
X03869Y-01169D01*
X04031Y-01330D01*
X04031Y-00410D01*
X03951Y-00408D01*
X03873Y-00391D01*
X03799Y-00359D01*
X03734Y-00313D01*
X03678Y-00255D01*
X03634Y-00188D01*
X03605Y-00113D01*
X03590Y-00034D01*
X03592Y00046D01*
X03608Y00124D01*
X03640Y00198D01*
X03685Y00264D01*
X03743Y00320D01*
X03810Y00364D01*
X03884Y00394D01*
X03963Y00409D01*
X04043Y00409D01*
X04122Y00393D01*
X04196Y00361D01*
X04262Y00317D01*
X04319Y00260D01*
X04363Y00193D01*
X04393Y00119D01*
X04409Y00040D01*
X04408Y-00052D01*
X04390Y-00130D01*
X04357Y-00203D01*
X04311Y-00269D01*
X04253Y-00324D01*
X04185Y-00367D01*
X04110Y-00396D01*
X04031Y-00410D01*
X04031Y-01330D01*
X04116Y-01416D01*
X04122Y-01421D01*
X04139Y-01442D01*
X04147Y-01452D01*
X04164Y-01484D01*
X04174Y-01520D01*
X04176Y-01548D01*
X04177Y-01555D01*
X04177Y-01557D01*
X04177Y-02291D01*
X04177Y-02293D01*
X04173Y-02330D01*
X04162Y-02365D01*
X04144Y-02397D01*
X04124Y-02420D01*
X04121Y-02425D01*
X04120Y-02425D01*
X04120Y-02426D01*
X04119Y-02426D01*
X03952Y-02593D01*
X03963Y-02591D01*
X04043Y-02591D01*
X04122Y-02607D01*
X04196Y-02639D01*
X04262Y-02683D01*
X04319Y-02740D01*
X04363Y-02807D01*
X04393Y-02881D01*
X04409Y-02960D01*
X04408Y-03052D01*
X04390Y-03130D01*
X04357Y-03203D01*
X04311Y-03269D01*
X04253Y-03324D01*
X04185Y-03367D01*
X04110Y-03396D01*
X04031Y-03410D01*
X04031Y-03495D01*
X04455Y-03495D01*
X04455Y-03495D01*
G37*
G54D16*
X04455Y-03495D02*
X04455Y00425D01*
X04455Y00425D02*
X-00465Y00425D01*
X-00465Y00425D02*
X-00465Y-03495D01*
X-00465Y-03495D02*
X04031Y-03495D01*
X04031Y-03495D02*
X04031Y-03410D01*
X04031Y-03410D02*
X03951Y-03408D01*
X03951Y-03408D02*
X03873Y-03391D01*
X03873Y-03391D02*
X03799Y-03359D01*
X03799Y-03359D02*
X03734Y-03313D01*
X03734Y-03313D02*
X03678Y-03255D01*
X03678Y-03255D02*
X03634Y-03188D01*
X03634Y-03188D02*
X03605Y-03113D01*
X03605Y-03113D02*
X03590Y-03034D01*
X03590Y-03034D02*
X03592Y-02954D01*
X03592Y-02954D02*
X03608Y-02876D01*
X03608Y-02876D02*
X03640Y-02802D01*
X03640Y-02802D02*
X03680Y-02742D01*
X03680Y-02742D02*
X03320Y-02742D01*
X03320Y-02742D02*
X03363Y-02807D01*
X03363Y-02807D02*
X03393Y-02881D01*
X03393Y-02881D02*
X03409Y-02960D01*
X03409Y-02960D02*
X03408Y-03052D01*
X03408Y-03052D02*
X03390Y-03130D01*
X03390Y-03130D02*
X03357Y-03203D01*
X03357Y-03203D02*
X03311Y-03269D01*
X03311Y-03269D02*
X03253Y-03324D01*
X03253Y-03324D02*
X03185Y-03367D01*
X03185Y-03367D02*
X03110Y-03396D01*
X03110Y-03396D02*
X03031Y-03410D01*
X03031Y-03410D02*
X02951Y-03408D01*
X02951Y-03408D02*
X02873Y-03391D01*
X02873Y-03391D02*
X02799Y-03359D01*
X02799Y-03359D02*
X02734Y-03313D01*
X02734Y-03313D02*
X02678Y-03255D01*
X02678Y-03255D02*
X02634Y-03188D01*
X02634Y-03188D02*
X02605Y-03113D01*
X02605Y-03113D02*
X02590Y-03034D01*
X02590Y-03034D02*
X02592Y-02954D01*
X02592Y-02954D02*
X02608Y-02876D01*
X02608Y-02876D02*
X02640Y-02802D01*
X02640Y-02802D02*
X02685Y-02736D01*
X02685Y-02736D02*
X02743Y-02680D01*
X02743Y-02680D02*
X02810Y-02636D01*
X02810Y-02636D02*
X02810Y-02624D01*
X02810Y-02624D02*
X02810Y-02623D01*
X02810Y-02623D02*
X02810Y-02623D01*
X02810Y-02623D02*
X02810Y-02614D01*
X02810Y-02614D02*
X02814Y-02584D01*
X02814Y-02584D02*
X02824Y-02550D01*
X02824Y-02550D02*
X02751Y-02550D01*
X02751Y-02550D02*
X02748Y-02554D01*
X02748Y-02554D02*
X02729Y-02569D01*
X02729Y-02569D02*
X02717Y-02579D01*
X02717Y-02579D02*
X02685Y-02596D01*
X02685Y-02596D02*
X02649Y-02606D01*
X02649Y-02606D02*
X02620Y-02608D01*
X02620Y-02608D02*
X02614Y-02609D01*
X02614Y-02609D02*
X02612Y-02609D01*
X02612Y-02609D02*
X02190Y-02609D01*
X02190Y-02609D02*
X02190Y-02636D01*
X02190Y-02636D02*
X02196Y-02639D01*
X02196Y-02639D02*
X02262Y-02683D01*
X02262Y-02683D02*
X02319Y-02740D01*
X02319Y-02740D02*
X02363Y-02807D01*
X02363Y-02807D02*
X02393Y-02881D01*
X02393Y-02881D02*
X02409Y-02960D01*
X02409Y-02960D02*
X02408Y-03052D01*
X02408Y-03052D02*
X02390Y-03130D01*
X02390Y-03130D02*
X02357Y-03203D01*
X02357Y-03203D02*
X02311Y-03269D01*
X02311Y-03269D02*
X02253Y-03324D01*
X02253Y-03324D02*
X02185Y-03367D01*
X02185Y-03367D02*
X02110Y-03396D01*
X02110Y-03396D02*
X02031Y-03410D01*
X02031Y-03410D02*
X01951Y-03408D01*
X01951Y-03408D02*
X01873Y-03391D01*
X01873Y-03391D02*
X01799Y-03359D01*
X01799Y-03359D02*
X01734Y-03313D01*
X01734Y-03313D02*
X01678Y-03255D01*
X01678Y-03255D02*
X01634Y-03188D01*
X01634Y-03188D02*
X01605Y-03113D01*
X01605Y-03113D02*
X01590Y-03034D01*
X01590Y-03034D02*
X01592Y-02954D01*
X01592Y-02954D02*
X01608Y-02876D01*
X01608Y-02876D02*
X01640Y-02802D01*
X01640Y-02802D02*
X01685Y-02736D01*
X01685Y-02736D02*
X01743Y-02680D01*
X01743Y-02680D02*
X01810Y-02636D01*
X01810Y-02636D02*
X01810Y-02435D01*
X01810Y-02435D02*
X01810Y-02434D01*
X01810Y-02434D02*
X01810Y-02434D01*
X01810Y-02434D02*
X01810Y-02425D01*
X01810Y-02425D02*
X01811Y-02417D01*
X01811Y-02417D02*
X01529Y-02417D01*
X01529Y-02417D02*
X01439Y-02506D01*
X01439Y-02506D02*
X01435Y-02512D01*
X01435Y-02512D02*
X01416Y-02527D01*
X01416Y-02527D02*
X01404Y-02537D01*
X01404Y-02537D02*
X01372Y-02554D01*
X01372Y-02554D02*
X01336Y-02564D01*
X01336Y-02564D02*
X01306Y-02566D01*
X01306Y-02566D02*
X01301Y-02567D01*
X01301Y-02567D02*
X01299Y-02567D01*
X01299Y-02567D02*
X01190Y-02567D01*
X01190Y-02567D02*
X01190Y-02636D01*
X01190Y-02636D02*
X01196Y-02639D01*
X01196Y-02639D02*
X01262Y-02683D01*
X01262Y-02683D02*
X01319Y-02740D01*
X01319Y-02740D02*
X01363Y-02807D01*
X01363Y-02807D02*
X01393Y-02881D01*
X01393Y-02881D02*
X01409Y-02960D01*
X01409Y-02960D02*
X01408Y-03052D01*
X01408Y-03052D02*
X01390Y-03130D01*
X01390Y-03130D02*
X01357Y-03203D01*
X01357Y-03203D02*
X01311Y-03269D01*
X01311Y-03269D02*
X01253Y-03324D01*
X01253Y-03324D02*
X01185Y-03367D01*
X01185Y-03367D02*
X01110Y-03396D01*
X01110Y-03396D02*
X01031Y-03410D01*
X01031Y-03410D02*
X00951Y-03408D01*
X00951Y-03408D02*
X00873Y-03391D01*
X00873Y-03391D02*
X00799Y-03359D01*
X00799Y-03359D02*
X00734Y-03313D01*
X00734Y-03313D02*
X00678Y-03255D01*
X00678Y-03255D02*
X00634Y-03188D01*
X00634Y-03188D02*
X00605Y-03113D01*
X00605Y-03113D02*
X00590Y-03034D01*
X00590Y-03034D02*
X00592Y-02954D01*
X00592Y-02954D02*
X00608Y-02876D01*
X00608Y-02876D02*
X00640Y-02802D01*
X00640Y-02802D02*
X00685Y-02736D01*
X00685Y-02736D02*
X00743Y-02680D01*
X00743Y-02680D02*
X00810Y-02636D01*
X00810Y-02636D02*
X00810Y-02399D01*
X00810Y-02399D02*
X00810Y-02398D01*
X00810Y-02398D02*
X00810Y-02398D01*
X00810Y-02398D02*
X00811Y-02388D01*
X00811Y-02388D02*
X00812Y-02375D01*
X00812Y-02375D02*
X00190Y-02375D01*
X00190Y-02375D02*
X00190Y-02591D01*
X00190Y-02591D02*
X00289Y-02591D01*
X00289Y-02591D02*
X00315Y-02596D01*
X00315Y-02596D02*
X00339Y-02607D01*
X00339Y-02607D02*
X00361Y-02621D01*
X00361Y-02621D02*
X00379Y-02640D01*
X00379Y-02640D02*
X00394Y-02662D01*
X00394Y-02662D02*
X00404Y-02686D01*
X00404Y-02686D02*
X00409Y-02712D01*
X00409Y-02712D02*
X00409Y-03289D01*
X00409Y-03289D02*
X00404Y-03315D01*
X00404Y-03315D02*
X00393Y-03339D01*
X00393Y-03339D02*
X00379Y-03361D01*
X00379Y-03361D02*
X00360Y-03379D01*
X00360Y-03379D02*
X00338Y-03394D01*
X00338Y-03394D02*
X00314Y-03404D01*
X00314Y-03404D02*
X00288Y-03409D01*
X00288Y-03409D02*
X-00289Y-03409D01*
X-00289Y-03409D02*
X-00315Y-03404D01*
X-00315Y-03404D02*
X-00339Y-03393D01*
X-00339Y-03393D02*
X-00361Y-03379D01*
X-00361Y-03379D02*
X-00379Y-03360D01*
X-00379Y-03360D02*
X-00394Y-03338D01*
X-00394Y-03338D02*
X-00404Y-03314D01*
X-00404Y-03314D02*
X-00409Y-03288D01*
X-00409Y-03288D02*
X-00409Y-02711D01*
X-00409Y-02711D02*
X-00404Y-02685D01*
X-00404Y-02685D02*
X-00393Y-02661D01*
X-00393Y-02661D02*
X-00379Y-02639D01*
X-00379Y-02639D02*
X-00360Y-02621D01*
X-00360Y-02621D02*
X-00338Y-02606D01*
X-00338Y-02606D02*
X-00314Y-02596D01*
X-00314Y-02596D02*
X-00288Y-02591D01*
X-00288Y-02591D02*
X-00190Y-02591D01*
X-00190Y-02591D02*
X-00190Y-02279D01*
X-00190Y-02279D02*
X-00190Y-02277D01*
X-00190Y-02277D02*
X-00186Y-02240D01*
X-00186Y-02240D02*
X-00175Y-02205D01*
X-00175Y-02205D02*
X-00157Y-02173D01*
X-00157Y-02173D02*
X-00133Y-02144D01*
X-00133Y-02144D02*
X-00129Y-02140D01*
X-00129Y-02140D02*
X-00040Y-02051D01*
X-00040Y-02051D02*
X-00040Y-02050D01*
X-00040Y-02050D02*
X-00039Y-02050D01*
X-00039Y-02050D02*
X-00030Y-02042D01*
X-00030Y-02042D02*
X-00008Y-02025D01*
X-00008Y-02025D02*
X00024Y-02008D01*
X00024Y-02008D02*
X00048Y-02001D01*
X00048Y-02001D02*
X00058Y-01999D01*
X00058Y-01999D02*
X00095Y-01995D01*
X00095Y-01995D02*
X00097Y-01995D01*
X00097Y-01995D02*
X00217Y-01995D01*
X00217Y-01995D02*
X-00119Y-01658D01*
X-00119Y-01658D02*
X-00124Y-01654D01*
X-00124Y-01654D02*
X-00140Y-01634D01*
X-00140Y-01634D02*
X-00149Y-01623D01*
X-00149Y-01623D02*
X-00166Y-01591D01*
X-00166Y-01591D02*
X-00176Y-01555D01*
X-00176Y-01555D02*
X-00179Y-01526D01*
X-00179Y-01526D02*
X-00179Y-01520D01*
X-00179Y-01520D02*
X-00179Y-01518D01*
X-00179Y-01518D02*
X-00179Y-00802D01*
X-00179Y-00802D02*
X-00179Y-00801D01*
X-00179Y-00801D02*
X-00179Y-00801D01*
X-00179Y-00801D02*
X-00178Y-00791D01*
X-00178Y-00791D02*
X-00175Y-00762D01*
X-00175Y-00762D02*
X-00164Y-00727D01*
X-00164Y-00727D02*
X-00146Y-00695D01*
X-00146Y-00695D02*
X-00122Y-00666D01*
X-00122Y-00666D02*
X-00118Y-00662D01*
X-00118Y-00662D02*
X-00046Y-00591D01*
X-00046Y-00591D02*
X-00046Y-00409D01*
X-00046Y-00409D02*
X-00289Y-00409D01*
X-00289Y-00409D02*
X-00315Y-00404D01*
X-00315Y-00404D02*
X-00339Y-00393D01*
X-00339Y-00393D02*
X-00361Y-00379D01*
X-00361Y-00379D02*
X-00379Y-00360D01*
X-00379Y-00360D02*
X-00394Y-00338D01*
X-00394Y-00338D02*
X-00404Y-00314D01*
X-00404Y-00314D02*
X-00409Y-00288D01*
X-00409Y-00288D02*
X-00409Y00289D01*
X-00409Y00289D02*
X-00404Y00315D01*
X-00404Y00315D02*
X-00393Y00339D01*
X-00393Y00339D02*
X-00379Y00361D01*
X-00379Y00361D02*
X-00360Y00379D01*
X-00360Y00379D02*
X-00338Y00394D01*
X-00338Y00394D02*
X-00314Y00404D01*
X-00314Y00404D02*
X-00288Y00409D01*
X-00288Y00409D02*
X00289Y00409D01*
X00289Y00409D02*
X00315Y00404D01*
X00315Y00404D02*
X00339Y00393D01*
X00339Y00393D02*
X00361Y00379D01*
X00361Y00379D02*
X00379Y00360D01*
X00379Y00360D02*
X00394Y00338D01*
X00394Y00338D02*
X00404Y00314D01*
X00404Y00314D02*
X00409Y00288D01*
X00409Y00288D02*
X00409Y-00280D01*
X00409Y-00280D02*
X00505Y-00184D01*
X00505Y-00184D02*
X00505Y-00183D01*
X00505Y-00183D02*
X00506Y-00183D01*
X00506Y-00183D02*
X00520Y-00171D01*
X00520Y-00171D02*
X00536Y-00159D01*
X00536Y-00159D02*
X00551Y-00151D01*
X00551Y-00151D02*
X00568Y-00142D01*
X00568Y-00142D02*
X00603Y-00132D01*
X00603Y-00132D02*
X00611Y-00131D01*
X00611Y-00131D02*
X00605Y-00113D01*
X00605Y-00113D02*
X00590Y-00034D01*
X00590Y-00034D02*
X00592Y00046D01*
X00592Y00046D02*
X00608Y00124D01*
X00608Y00124D02*
X00640Y00198D01*
X00640Y00198D02*
X00685Y00264D01*
X00685Y00264D02*
X00743Y00320D01*
X00743Y00320D02*
X00810Y00364D01*
X00810Y00364D02*
X00884Y00394D01*
X00884Y00394D02*
X00963Y00409D01*
X00963Y00409D02*
X01043Y00409D01*
X01043Y00409D02*
X01122Y00393D01*
X01122Y00393D02*
X01196Y00361D01*
X01196Y00361D02*
X01262Y00317D01*
X01262Y00317D02*
X01319Y00260D01*
X01319Y00260D02*
X01363Y00193D01*
X01363Y00193D02*
X01393Y00119D01*
X01393Y00119D02*
X01409Y00040D01*
X01409Y00040D02*
X01408Y-00052D01*
X01408Y-00052D02*
X01390Y-00130D01*
X01390Y-00130D02*
X01381Y-00148D01*
X01381Y-00148D02*
X01393Y-00142D01*
X01393Y-00142D02*
X01428Y-00132D01*
X01428Y-00132D02*
X01465Y-00128D01*
X01465Y-00128D02*
X01467Y-00128D01*
X01467Y-00128D02*
X01603Y-00128D01*
X01603Y-00128D02*
X01608Y-00122D01*
X01608Y-00122D02*
X01605Y-00113D01*
X01605Y-00113D02*
X01590Y-00034D01*
X01590Y-00034D02*
X01592Y00046D01*
X01592Y00046D02*
X01608Y00124D01*
X01608Y00124D02*
X01640Y00198D01*
X01640Y00198D02*
X01685Y00264D01*
X01685Y00264D02*
X01743Y00320D01*
X01743Y00320D02*
X01810Y00364D01*
X01810Y00364D02*
X01884Y00394D01*
X01884Y00394D02*
X01963Y00409D01*
X01963Y00409D02*
X02043Y00409D01*
X02043Y00409D02*
X02122Y00393D01*
X02122Y00393D02*
X02196Y00361D01*
X02196Y00361D02*
X02262Y00317D01*
X02262Y00317D02*
X02319Y00260D01*
X02319Y00260D02*
X02363Y00193D01*
X02363Y00193D02*
X02393Y00119D01*
X02393Y00119D02*
X02409Y00040D01*
X02409Y00040D02*
X02408Y-00052D01*
X02408Y-00052D02*
X02390Y-00130D01*
X02390Y-00130D02*
X02357Y-00203D01*
X02357Y-00203D02*
X02311Y-00269D01*
X02311Y-00269D02*
X02257Y-00320D01*
X02257Y-00320D02*
X02411Y-00320D01*
X02411Y-00320D02*
X02608Y-00122D01*
X02608Y-00122D02*
X02605Y-00113D01*
X02605Y-00113D02*
X02590Y-00034D01*
X02590Y-00034D02*
X02592Y00046D01*
X02592Y00046D02*
X02608Y00124D01*
X02608Y00124D02*
X02640Y00198D01*
X02640Y00198D02*
X02685Y00264D01*
X02685Y00264D02*
X02743Y00320D01*
X02743Y00320D02*
X02810Y00364D01*
X02810Y00364D02*
X02884Y00394D01*
X02884Y00394D02*
X02963Y00409D01*
X02963Y00409D02*
X03043Y00409D01*
X03043Y00409D02*
X03122Y00393D01*
X03122Y00393D02*
X03196Y00361D01*
X03196Y00361D02*
X03262Y00317D01*
X03262Y00317D02*
X03319Y00260D01*
X03319Y00260D02*
X03363Y00193D01*
X03363Y00193D02*
X03393Y00119D01*
X03393Y00119D02*
X03409Y00040D01*
X03409Y00040D02*
X03408Y-00052D01*
X03408Y-00052D02*
X03390Y-00130D01*
X03390Y-00130D02*
X03357Y-00203D01*
X03357Y-00203D02*
X03311Y-00269D01*
X03311Y-00269D02*
X03253Y-00324D01*
X03253Y-00324D02*
X03185Y-00367D01*
X03185Y-00367D02*
X03110Y-00396D01*
X03110Y-00396D02*
X03031Y-00410D01*
X03031Y-00410D02*
X02951Y-00408D01*
X02951Y-00408D02*
X02876Y-00391D01*
X02876Y-00391D02*
X02628Y-00639D01*
X02628Y-00639D02*
X02624Y-00645D01*
X02624Y-00645D02*
X02605Y-00660D01*
X02605Y-00660D02*
X02593Y-00670D01*
X02593Y-00670D02*
X02561Y-00687D01*
X02561Y-00687D02*
X02525Y-00697D01*
X02525Y-00697D02*
X02496Y-00699D01*
X02496Y-00699D02*
X02490Y-00700D01*
X02490Y-00700D02*
X02488Y-00700D01*
X02488Y-00700D02*
X01623Y-00700D01*
X01623Y-00700D02*
X01491Y-00831D01*
X01491Y-00831D02*
X01487Y-00837D01*
X01487Y-00837D02*
X01467Y-00852D01*
X01467Y-00852D02*
X01456Y-00862D01*
X01456Y-00862D02*
X01424Y-00879D01*
X01424Y-00879D02*
X01388Y-00889D01*
X01388Y-00889D02*
X01359Y-00891D01*
X01359Y-00891D02*
X01353Y-00892D01*
X01353Y-00892D02*
X01351Y-00892D01*
X01351Y-00892D02*
X00945Y-00892D01*
X00945Y-00892D02*
X00968Y-00915D01*
X00968Y-00915D02*
X01099Y-00915D01*
X01099Y-00915D02*
X01125Y-00920D01*
X01125Y-00920D02*
X01149Y-00931D01*
X01149Y-00931D02*
X01171Y-00945D01*
X01171Y-00945D02*
X01189Y-00964D01*
X01189Y-00964D02*
X01204Y-00986D01*
X01204Y-00986D02*
X01214Y-01010D01*
X01214Y-01010D02*
X01219Y-01036D01*
X01219Y-01036D02*
X01219Y-01199D01*
X01219Y-01199D02*
X01214Y-01225D01*
X01214Y-01225D02*
X01205Y-01244D01*
X01205Y-01244D02*
X01214Y-01266D01*
X01214Y-01266D02*
X01219Y-01292D01*
X01219Y-01292D02*
X01219Y-01455D01*
X01219Y-01455D02*
X01214Y-01481D01*
X01214Y-01481D02*
X01205Y-01499D01*
X01205Y-01499D02*
X01214Y-01520D01*
X01214Y-01520D02*
X01219Y-01546D01*
X01219Y-01546D02*
X01219Y-01709D01*
X01219Y-01709D02*
X01214Y-01735D01*
X01214Y-01735D02*
X01205Y-01754D01*
X01205Y-01754D02*
X01214Y-01776D01*
X01214Y-01776D02*
X01219Y-01802D01*
X01219Y-01802D02*
X01219Y-01918D01*
X01219Y-01918D02*
X01231Y-01905D01*
X01231Y-01905D02*
X01236Y-01900D01*
X01236Y-01900D02*
X01257Y-01882D01*
X01257Y-01882D02*
X01267Y-01875D01*
X01267Y-01875D02*
X01299Y-01858D01*
X01299Y-01858D02*
X01335Y-01848D01*
X01335Y-01848D02*
X01364Y-01845D01*
X01364Y-01845D02*
X01370Y-01845D01*
X01370Y-01845D02*
X01372Y-01845D01*
X01372Y-01845D02*
X02366Y-01845D01*
X02366Y-01845D02*
X02462Y-01749D01*
X02462Y-01749D02*
X02462Y-01748D01*
X02462Y-01748D02*
X02463Y-01748D01*
X02463Y-01748D02*
X02477Y-01736D01*
X02477Y-01736D02*
X02493Y-01724D01*
X02493Y-01724D02*
X02508Y-01716D01*
X02508Y-01716D02*
X02525Y-01707D01*
X02525Y-01707D02*
X02560Y-01697D01*
X02560Y-01697D02*
X02597Y-01693D01*
X02597Y-01693D02*
X02598Y-01693D01*
X02598Y-01693D02*
X02781Y-01693D01*
X02781Y-01693D02*
X02781Y-01545D01*
X02781Y-01545D02*
X02786Y-01519D01*
X02786Y-01519D02*
X02794Y-01500D01*
X02794Y-01500D02*
X02786Y-01480D01*
X02786Y-01480D02*
X02781Y-01454D01*
X02781Y-01454D02*
X02781Y-01291D01*
X02781Y-01291D02*
X02786Y-01265D01*
X02786Y-01265D02*
X02794Y-01245D01*
X02794Y-01245D02*
X02786Y-01224D01*
X02786Y-01224D02*
X02781Y-01198D01*
X02781Y-01198D02*
X02781Y-01035D01*
X02781Y-01035D02*
X02786Y-01009D01*
X02786Y-01009D02*
X02797Y-00985D01*
X02797Y-00985D02*
X02811Y-00963D01*
X02811Y-00963D02*
X02830Y-00945D01*
X02830Y-00945D02*
X02852Y-00930D01*
X02852Y-00930D02*
X02876Y-00920D01*
X02876Y-00920D02*
X02902Y-00915D01*
X02902Y-00915D02*
X03401Y-00915D01*
X03401Y-00915D02*
X03427Y-00920D01*
X03427Y-00920D02*
X03442Y-00927D01*
X03442Y-00927D02*
X03552Y-00927D01*
X03552Y-00927D02*
X03552Y-00927D01*
X03552Y-00927D02*
X03553Y-00927D01*
X03553Y-00927D02*
X03562Y-00928D01*
X03562Y-00928D02*
X03592Y-00931D01*
X03592Y-00931D02*
X03627Y-00942D01*
X03627Y-00942D02*
X03659Y-00960D01*
X03659Y-00960D02*
X03688Y-00984D01*
X03688Y-00984D02*
X03691Y-00988D01*
X03691Y-00988D02*
X03848Y-01145D01*
X03848Y-01145D02*
X03854Y-01150D01*
X03854Y-01150D02*
X03869Y-01169D01*
X03869Y-01169D02*
X04031Y-01330D01*
X04031Y-01330D02*
X04031Y-00410D01*
X04031Y-00410D02*
X03951Y-00408D01*
X03951Y-00408D02*
X03873Y-00391D01*
X03873Y-00391D02*
X03799Y-00359D01*
X03799Y-00359D02*
X03734Y-00313D01*
X03734Y-00313D02*
X03678Y-00255D01*
X03678Y-00255D02*
X03634Y-00188D01*
X03634Y-00188D02*
X03605Y-00113D01*
X03605Y-00113D02*
X03590Y-00034D01*
X03590Y-00034D02*
X03592Y00046D01*
X03592Y00046D02*
X03608Y00124D01*
X03608Y00124D02*
X03640Y00198D01*
X03640Y00198D02*
X03685Y00264D01*
X03685Y00264D02*
X03743Y00320D01*
X03743Y00320D02*
X03810Y00364D01*
X03810Y00364D02*
X03884Y00394D01*
X03884Y00394D02*
X03963Y00409D01*
X03963Y00409D02*
X04043Y00409D01*
X04043Y00409D02*
X04122Y00393D01*
X04122Y00393D02*
X04196Y00361D01*
X04196Y00361D02*
X04262Y00317D01*
X04262Y00317D02*
X04319Y00260D01*
X04319Y00260D02*
X04363Y00193D01*
X04363Y00193D02*
X04393Y00119D01*
X04393Y00119D02*
X04409Y00040D01*
X04409Y00040D02*
X04408Y-00052D01*
X04408Y-00052D02*
X04390Y-00130D01*
X04390Y-00130D02*
X04357Y-00203D01*
X04357Y-00203D02*
X04311Y-00269D01*
X04311Y-00269D02*
X04253Y-00324D01*
X04253Y-00324D02*
X04185Y-00367D01*
X04185Y-00367D02*
X04110Y-00396D01*
X04110Y-00396D02*
X04031Y-00410D01*
X04031Y-00410D02*
X04031Y-01330D01*
X04031Y-01330D02*
X04116Y-01416D01*
X04116Y-01416D02*
X04122Y-01421D01*
X04122Y-01421D02*
X04139Y-01442D01*
X04139Y-01442D02*
X04147Y-01452D01*
X04147Y-01452D02*
X04164Y-01484D01*
X04164Y-01484D02*
X04174Y-01520D01*
X04174Y-01520D02*
X04176Y-01548D01*
X04176Y-01548D02*
X04177Y-01555D01*
X04177Y-01555D02*
X04177Y-01557D01*
X04177Y-01557D02*
X04177Y-02291D01*
X04177Y-02291D02*
X04177Y-02293D01*
X04177Y-02293D02*
X04173Y-02330D01*
X04173Y-02330D02*
X04162Y-02365D01*
X04162Y-02365D02*
X04144Y-02397D01*
X04144Y-02397D02*
X04124Y-02420D01*
X04124Y-02420D02*
X04121Y-02425D01*
X04121Y-02425D02*
X04120Y-02425D01*
X04120Y-02425D02*
X04120Y-02426D01*
X04120Y-02426D02*
X04119Y-02426D01*
X04119Y-02426D02*
X03952Y-02593D01*
X03952Y-02593D02*
X03963Y-02591D01*
X03963Y-02591D02*
X04043Y-02591D01*
X04043Y-02591D02*
X04122Y-02607D01*
X04122Y-02607D02*
X04196Y-02639D01*
X04196Y-02639D02*
X04262Y-02683D01*
X04262Y-02683D02*
X04319Y-02740D01*
X04319Y-02740D02*
X04363Y-02807D01*
X04363Y-02807D02*
X04393Y-02881D01*
X04393Y-02881D02*
X04409Y-02960D01*
X04409Y-02960D02*
X04408Y-03052D01*
X04408Y-03052D02*
X04390Y-03130D01*
X04390Y-03130D02*
X04357Y-03203D01*
X04357Y-03203D02*
X04311Y-03269D01*
X04311Y-03269D02*
X04253Y-03324D01*
X04253Y-03324D02*
X04185Y-03367D01*
X04185Y-03367D02*
X04110Y-03396D01*
X04110Y-03396D02*
X04031Y-03410D01*
X04031Y-03410D02*
X04031Y-03495D01*
X04031Y-03495D02*
X04455Y-03495D01*
M02*
